<svg width="57" height="56" viewBox="0 0 57 56" fill="none" xmlns="http://www.w3.org/2000/svg">
<path d="M54.5193 5.28327C54.5193 3.53648 52.7726 1.7897 51.0258 1.7897H5.60947C3.86269 1.7897 2.11591 3.53648 2.11591 5.28327V38.4721H54.5193V5.28327Z" fill="#212528"/>
<path d="M2.11591 38.4721V41.9657C2.11591 43.7125 3.86269 45.4592 5.60947 45.4592H51.0258C52.7726 45.4592 54.5193 43.7125 54.5193 41.9657V38.4721H2.11591Z" fill="#DDDDDD"/>
<path d="M21.3305 47.206C21.3305 50.6996 17.8369 50.6996 14.3434 50.6996H42.2918C38.7983 50.6996 35.3047 50.6996 35.3047 47.206V45.4592H21.3305V47.206Z" fill="#BFBEBE"/>
<path d="M5.60947 5.28326H51.0258V34.9785H5.60947V5.28326Z" fill="#3E4347"/>
<path d="M28.3176 42.7517C28.8 42.7517 29.191 42.3606 29.191 41.8783C29.191 41.3959 28.8 41.0049 28.3176 41.0049C27.8352 41.0049 27.4442 41.3959 27.4442 41.8783C27.4442 42.3606 27.8352 42.7517 28.3176 42.7517Z" fill="#94989B"/>
<path d="M14.3434 50.6996H42.2918V54.1931H14.3434V50.6996Z" fill="#94989B"/>
</svg>
