<svg width="64" height="64" viewBox="0 0 64 64" fill="none" xmlns="http://www.w3.org/2000/svg">
<path d="M7.3 53.8H56.7C57.5 53.8 58.1 53.2 58.1 52.4V19.4C58.1 18.6 57.5 18 56.7 18H7.3C6.6 18 6 18.6 6 19.4V52.4C6 53.2 6.6 53.8 7.3 53.8Z" fill="#212528"/>
<path d="M2 58.7C2 60.3 3.3 62 5 62H59C60.6 62 62 60.3 62 58.7H2Z" fill="#212528"/>
<path d="M57 53.8H7L2 58.7H62L57 53.8Z" fill="#DDDDDD"/>
<path d="M55.3 54.2H8.7L7 56.2H57L55.3 54.2Z" fill="#BFBEBE"/>
<path d="M37.1 57.1H26.9L26.1 58.2H37.9L37.1 57.1Z" fill="#212528"/>
<path d="M9 21H55V50.8H9V21Z" fill="white"/>
<path d="M32 20.4C32.4418 20.4 32.8 20.0418 32.8 19.6C32.8 19.1582 32.4418 18.8 32 18.8C31.5582 18.8 31.2 19.1582 31.2 19.6C31.2 20.0418 31.5582 20.4 32 20.4Z" fill="#DDDDDD"/>
<path d="M36.3 60.8H27.7C27.4 60.8 26.6 60.8 26.6 59.8H37.4C37.4 60.8 36.6 60.8 36.3 60.8Z" fill="#3E4347"/>
<path d="M33 34C36.3137 34 39 31.3137 39 28C39 24.6863 36.3137 22 33 22C29.6863 22 27 24.6863 27 28C27 31.3137 29.6863 34 33 34Z" fill="#FFB74D"/>
<path d="M45 45.1C45 45.1 41.7 37.6 33 37.6C24.3 37.6 21 45.1 21 45.1V49H45V45.1Z" fill="#607D8B"/>
<circle cx="52.5" cy="23.5" r="1.5" fill="#FF0000"/>
<path d="M43 25V23H43.5411V24.6498H44.5763V25H43Z" fill="#FF0000"/>
<path d="M45.0214 25V23H45.5626V25H45.0214Z" fill="#FF0000"/>
<path d="M47.6608 23H48.2072L47.3397 25H46.7496L45.8838 23H46.4302L46.9102 24.1902C46.937 24.2604 46.9643 24.3425 46.9923 24.4364C47.0214 24.5294 47.0394 24.5942 47.0464 24.6306C47.0592 24.5467 47.1028 24.3999 47.1773 24.1902L47.6608 23Z" fill="#FF0000"/>
<path d="M50 25H48.5302V23H50V23.3475H49.0713V23.7866H49.9354V24.1341H49.0713V24.6498H50V25Z" fill="#FF0000"/>
</svg>
