<svg width="39" height="39" viewBox="0 0 39 39" fill="none" xmlns="http://www.w3.org/2000/svg">
<path d="M19.6045 22.3491C21.3464 22.3491 22.7585 20.937 22.7585 19.1951C22.7585 17.4531 21.3464 16.041 19.6045 16.041C17.8626 16.041 16.4504 17.4531 16.4504 19.1951C16.4504 20.937 17.8626 22.3491 19.6045 22.3491Z" fill="#FF5722"/>
<path d="M30.6437 22.3491C32.3856 22.3491 33.7977 20.937 33.7977 19.1951C33.7977 17.4531 32.3856 16.041 30.6437 16.041C28.9017 16.041 27.4896 17.4531 27.4896 19.1951C27.4896 20.937 28.9017 22.3491 30.6437 22.3491Z" fill="#FF5722"/>
<path d="M8.56531 22.3491C10.3072 22.3491 11.7194 20.937 11.7194 19.1951C11.7194 17.4531 10.3072 16.041 8.56531 16.041C6.82337 16.041 5.41125 17.4531 5.41125 19.1951C5.41125 20.937 6.82337 22.3491 8.56531 22.3491Z" fill="#FF5722"/>
</svg>
