<svg width="66" height="66" viewBox="0 0 66 66" fill="none" xmlns="http://www.w3.org/2000/svg">
<path d="M1.375 52.25H64.625V55H1.375V52.25Z" fill="#FF9800"/>
<path d="M34.375 24.75H39.875V46.75H34.375V24.75Z" fill="#FF9800"/>
<path d="M42.625 24.75H48.125V46.75H42.625V24.75Z" fill="#FF9800"/>
<path d="M50.875 24.75H56.375V46.75H50.875V24.75Z" fill="#FF9800"/>
<path d="M26.125 24.75H31.625V46.75H26.125V24.75Z" fill="#FF9800"/>
<path d="M17.875 24.75H23.375V46.75H17.875V24.75Z" fill="#FF9800"/>
<path d="M9.625 24.75H15.125V46.75H9.625V24.75Z" fill="#FF9800"/>
<path d="M59.125 22H6.875V17.875L33 5.5L59.125 17.875V22Z" fill="#FF9800"/>
<path d="M6.875 46.75H59.125V49.5H6.875V46.75Z" fill="#FF9800"/>
<path d="M34.375 22H39.875V24.75H34.375V22Z" fill="#EF6C00"/>
<path d="M42.625 22H48.125V24.75H42.625V22Z" fill="#EF6C00"/>
<path d="M50.875 22H56.375V24.75H50.875V22Z" fill="#EF6C00"/>
<path d="M26.125 22H31.625V24.75H26.125V22Z" fill="#EF6C00"/>
<path d="M17.875 22H23.375V24.75H17.875V22Z" fill="#EF6C00"/>
<path d="M9.625 22H15.125V24.75H9.625V22Z" fill="#EF6C00"/>
<path d="M4.125 49.5H61.875V52.25H4.125V49.5Z" fill="#EF6C00"/>
<path d="M33 17.875C34.5188 17.875 35.75 16.6438 35.75 15.125C35.75 13.6062 34.5188 12.375 33 12.375C31.4812 12.375 30.25 13.6062 30.25 15.125C30.25 16.6438 31.4812 17.875 33 17.875Z" fill="#EF6C00"/>
</svg>
