<svg width="67" height="67" viewBox="0 0 67 67" fill="none" xmlns="http://www.w3.org/2000/svg">
<path d="M18.1458 41.875H48.8542V58.625H18.1458V41.875Z" fill="#BF360C"/>
<path d="M13.9583 41.875C17.0419 41.875 19.5417 39.3753 19.5417 36.2917C19.5417 33.2081 17.0419 30.7083 13.9583 30.7083C10.8747 30.7083 8.375 33.2081 8.375 36.2917C8.375 39.3753 10.8747 41.875 13.9583 41.875Z" fill="#FFA726"/>
<path d="M53.0417 41.875C56.1253 41.875 58.625 39.3753 58.625 36.2917C58.625 33.2081 56.1253 30.7083 53.0417 30.7083C49.9581 30.7083 47.4583 33.2081 47.4583 36.2917C47.4583 39.3753 49.9581 41.875 53.0417 41.875Z" fill="#FFA726"/>
<path d="M54.4375 26.5208C54.4375 8.79371 12.5625 14.9354 12.5625 26.5208V40.4791C12.5625 52.0645 21.9146 61.4166 33.5 61.4166C45.0854 61.4166 54.4375 52.0645 54.4375 40.4791V26.5208Z" fill="#FFB74D"/>
<path d="M41.875 39.0833C43.4168 39.0833 44.6667 37.8335 44.6667 36.2917C44.6667 34.7499 43.4168 33.5 41.875 33.5C40.3332 33.5 39.0833 34.7499 39.0833 36.2917C39.0833 37.8335 40.3332 39.0833 41.875 39.0833Z" fill="#784719"/>
<path d="M25.125 39.0833C26.6668 39.0833 27.9167 37.8335 27.9167 36.2917C27.9167 34.7499 26.6668 33.5 25.125 33.5C23.5832 33.5 22.3333 34.7499 22.3333 36.2917C22.3333 37.8335 23.5832 39.0833 25.125 39.0833Z" fill="#784719"/>
<path d="M33.5 2.79167C21.6354 2.79167 4.1875 10.8875 4.1875 49.6917L18.1458 58.625V33.5L41.5958 19.8208L48.8542 29.3125V58.625L62.8125 47.1792C62.8125 39.3625 61.5563 6.7 41.3167 6.7L39.3625 2.79167H33.5Z" fill="#FF5722"/>
<path d="M62.8125 33.5C61.975 33.5 61.4167 34.0583 61.4167 34.8958V25.125C61.4167 12.8417 51.3667 2.79167 39.0833 2.79167H26.5208C25.6833 2.79167 25.125 3.35 25.125 4.1875C25.125 5.025 25.6833 5.58333 26.5208 5.58333H39.0833C49.8312 5.58333 58.625 14.3771 58.625 25.125V39.0833C58.625 39.9208 59.1833 40.4792 60.0208 40.4792C60.8583 40.4792 61.4167 39.9208 61.4167 39.0833V41.875C61.4167 47.3187 57.0896 51.6458 51.6458 51.6458H33.5C32.6625 51.6458 32.1042 52.2042 32.1042 53.0417C32.1042 53.8792 32.6625 54.4375 33.5 54.4375H51.6458C58.625 54.4375 64.2083 48.8542 64.2083 41.875V34.8958C64.2083 34.0583 63.65 33.5 62.8125 33.5Z" fill="#757575"/>
<path d="M62.8125 30.7083H61.4167C59.8813 30.7083 58.625 31.9646 58.625 33.5V39.0833C58.625 40.6188 59.8813 41.875 61.4167 41.875H62.8125C64.3479 41.875 65.6042 40.6188 65.6042 39.0833V33.5C65.6042 31.9646 64.3479 30.7083 62.8125 30.7083Z" fill="#37474F"/>
<path d="M33.5 55.8333C35.0418 55.8333 36.2917 54.5835 36.2917 53.0417C36.2917 51.4999 35.0418 50.25 33.5 50.25C31.9582 50.25 30.7083 51.4999 30.7083 53.0417C30.7083 54.5835 31.9582 55.8333 33.5 55.8333Z" fill="#37474F"/>
</svg>
