<svg width="98" height="87" viewBox="0 0 98 87" fill="none" xmlns="http://www.w3.org/2000/svg">
<path d="M26.9375 0C12.9938 0 5.375 9.05625 5.375 21.1313V47.725H48.5V21.1313C48.5 3.30625 36.8562 3.59375 36.8562 3.59375C36.8562 3.59375 35.9938 0 26.9375 0Z" fill="#FFB300"/>
<path d="M48.5 47.15L43 86.25H97.5L91.625 47.15C91.625 38.8125 48.5 38.8125 48.5 47.15Z" fill="#01579B"/>
<path d="M5.375 47.15L0 86.25H52.5L48.5 47.15C48.5 38.8125 5.375 38.8125 5.375 47.15Z" fill="#C2185B"/>
<path d="M11.7 31.05C11.7 31.05 8.53748 30.1875 8.53748 25.4437C8.53748 21.7062 10.9812 20.9875 10.9812 20.9875C19.6062 20.9875 33.6937 9.77499 33.6937 9.77499C33.6937 9.77499 39.0125 19.6937 44.1875 20.9875C44.1875 20.9875 46.6312 21.4187 46.6312 25.4437C46.6312 30.1875 43.325 31.05 43.325 31.05C43.325 38.2375 33.55 45.425 27.5125 45.425C21.7625 45.425 11.7 38.2375 11.7 31.05" fill="#FFDD67"/>
<path d="M19.8938 29.4688C21.6404 29.4688 23.0563 28.0529 23.0563 26.3063C23.0563 24.5597 21.6404 23.1438 19.8938 23.1438C18.1472 23.1438 16.7313 24.5597 16.7313 26.3063C16.7313 28.0529 18.1472 29.4688 19.8938 29.4688Z" fill="#937237"/>
<path d="M35.4188 29.4688C37.1654 29.4688 38.5813 28.0529 38.5813 26.3063C38.5813 24.5597 37.1654 23.1438 35.4188 23.1438C33.6722 23.1438 32.2563 24.5597 32.2563 26.3063C32.2563 28.0529 33.6722 29.4688 35.4188 29.4688Z" fill="#937237"/>
<path d="M32.8313 36.225C29.525 38.8125 25.7875 38.8125 22.4813 36.225C22.05 35.9375 21.7625 36.5125 22.05 36.9438C23.0563 38.8125 25.0688 40.3938 27.6563 40.3938C30.2438 40.3938 32.2563 38.8125 33.2625 36.9438C33.55 36.3688 33.2625 35.7938 32.8313 36.225" fill="#937237"/>
<path d="M48.3562 21.9938L50.5125 26.0188H88.175L89.7562 21.85C89.7562 6.6125 86.1625 0.287502 69.4875 0.143752C52.525 -0.143748 48.3562 6.6125 48.3562 21.9938" fill="#FFB300"/>
<path d="M88.3187 21.7063C88.175 22.5688 88.0312 23.4313 87.7437 23.8625C87.3125 24.725 86.45 25.1563 86.45 25.1563C86.45 25.1563 86.7375 23.4313 86.5937 21.1313C85.5875 7.18751 84.8687 13.8 69.4875 13.8C54.1062 13.8 53.2437 7.04376 52.3812 20.9875C52.2375 23.4313 52.525 25.0125 52.525 25.0125C52.525 25.0125 51.6625 24.5813 51.2312 23.7188C50.9437 23.2875 50.8 22.425 50.6562 21.5625C49.2187 21.1313 47.35 21.5625 47.35 25.7313C47.35 28.3188 48.3562 30.475 51.5187 30.7625C52.6687 39.5313 64.3125 45.2813 69.6312 45.2813C74.8062 45.2813 86.5937 39.3875 87.7437 30.7625C90.9062 30.475 91.9125 28.3188 91.9125 25.7313C91.625 21.7063 89.7562 21.4188 88.3187 21.7063" fill="#FFDD67"/>
<path d="M61.4375 29.4688C63.1841 29.4688 64.6 28.0529 64.6 26.3063C64.6 24.5597 63.1841 23.1438 61.4375 23.1438C59.6909 23.1438 58.275 24.5597 58.275 26.3063C58.275 28.0529 59.6909 29.4688 61.4375 29.4688Z" fill="#937237"/>
<path d="M77.25 29.4688C78.9966 29.4688 80.4125 28.0529 80.4125 26.3063C80.4125 24.5597 78.9966 23.1438 77.25 23.1438C75.5034 23.1438 74.0875 24.5597 74.0875 26.3063C74.0875 28.0529 75.5034 29.4688 77.25 29.4688Z" fill="#937237"/>
<path d="M74.5187 36.225C71.2125 38.8125 67.475 38.8125 64.1687 36.225C63.7375 35.9375 63.45 36.5125 63.7375 36.9438C64.7437 38.8125 66.7562 40.3938 69.3437 40.3938C71.9312 40.3938 73.9437 38.8125 74.95 36.9438C75.2375 36.3688 74.95 35.7938 74.5187 36.225Z" fill="#937237"/>
</svg>
