<svg width="330" height="181" viewBox="0 0 330 181" fill="none" xmlns="http://www.w3.org/2000/svg">
<path d="M49.3294 140.031C38.964 140.031 33.9256 145.026 33.9256 155.301C33.9256 160.667 35.1647 164.633 37.6092 167.093L37.6102 167.094C40.026 169.524 43.8856 170.757 49.0811 170.757C50.5615 170.757 52.1823 170.615 53.8999 170.335C55.5425 170.068 56.8646 169.672 57.8297 169.157C58.343 168.886 58.9491 168.473 58.9491 168.036C58.9491 168.027 58.9412 167.777 58.6119 167.007C58.3766 166.456 58.069 165.956 57.6992 165.525C57.5083 165.303 57.3669 165.216 57.2977 165.189C57.2117 165.216 57.0327 165.279 56.7182 165.426C55.5909 165.897 54.4547 166.275 53.2967 166.568C52.0982 166.871 50.6802 167.024 49.0811 167.024C44.6213 167.024 39.3061 164.998 39.3061 155.347C39.3061 151.576 40.0824 148.798 41.6784 146.851C43.3338 144.832 45.8574 143.81 49.179 143.81C50.6614 143.81 51.9647 143.928 53.0525 144.163C54.1195 144.395 55.0451 144.663 55.8035 144.965C56.1575 145.104 56.381 145.188 56.5224 145.239C56.6105 145.18 56.7499 145.071 56.9447 144.868C57.3818 144.412 57.7625 143.878 58.0799 143.28C58.4557 142.568 58.4992 142.226 58.5002 142.108C58.5002 142.109 58.4992 142.109 58.4992 142.109C58.4883 142.109 58.3647 141.916 57.8287 141.63C56.9803 141.17 55.7511 140.788 54.1669 140.492C52.5294 140.186 50.9017 140.031 49.3294 140.031ZM49.0811 173.069C43.1568 173.069 38.6801 171.584 35.7718 168.657L35.7728 168.658C32.8903 165.759 31.4287 161.266 31.4287 155.301C31.4287 143.635 37.451 137.718 49.3294 137.718C51.0668 137.718 52.8616 137.889 54.6614 138.226C56.5422 138.578 57.9889 139.037 59.0846 139.631C60.3514 140.308 60.9981 141.141 60.9981 142.105C60.9981 142.719 60.7786 143.436 60.3237 144.297C59.9074 145.082 59.3991 145.79 58.8147 146.401C58.0443 147.205 57.2888 147.598 56.5086 147.598C56.206 147.598 55.9192 147.524 54.8206 147.09C54.1946 146.841 53.4095 146.614 52.4849 146.414C51.584 146.22 50.4715 146.122 49.179 146.122C46.6455 146.122 44.8418 146.817 43.668 148.247C42.4319 149.758 41.804 152.146 41.804 155.347C41.804 163.742 45.9563 164.712 49.0811 164.712C50.4577 164.712 51.6552 164.586 52.6401 164.337C53.6705 164.078 54.6821 163.741 55.6453 163.338C56.3553 163.008 56.8349 162.866 57.2562 162.866C57.8723 162.866 58.788 163.078 59.6552 164.088C60.1773 164.697 60.6085 165.393 60.9358 166.158C61.2839 166.976 61.447 167.573 61.447 168.036C61.447 169.278 60.649 170.329 59.0727 171.162C57.8584 171.81 56.2614 172.298 54.3321 172.613C52.472 172.914 50.7059 173.069 49.0811 173.069Z" fill="#477665"/>
<path d="M66.4397 170.287L66.4416 170.288L66.4397 170.287ZM66.4397 170.287C66.4476 170.291 66.5929 170.387 67.0785 170.387H83.5314C83.6135 170.387 83.6461 170.376 83.6461 170.376C83.6283 170.36 83.7786 170.079 83.7786 169.236V167.804C83.7786 167.049 83.657 166.745 83.6115 166.655C83.5927 166.654 83.568 166.654 83.5314 166.654H71.5126V140.627C71.5155 140.596 71.213 140.307 69.7702 140.307H68.0762C66.6325 140.307 66.3299 140.596 66.3269 140.598L66.3329 169.696C66.3329 170.146 66.4347 170.28 66.4397 170.287ZM83.5314 172.698H67.0785C66.0392 172.698 65.2312 172.437 64.6745 171.921C64.1178 171.407 63.8359 170.658 63.8359 169.696V140.627C63.8359 139.644 64.3867 137.995 68.0762 137.995H69.7702C73.4597 137.995 74.0105 139.644 74.0105 140.627V164.341H83.5314C84.5064 164.341 85.2965 164.741 85.7564 165.468C86.1064 166.026 86.2755 166.789 86.2755 167.804V169.236C86.2755 170.251 86.1064 171.014 85.7573 171.569C85.2965 172.298 84.5064 172.698 83.5314 172.698Z" fill="#477665"/>
<path d="M101.951 157.789H105.99L104.006 152.055L101.951 157.789ZM102.855 147.459C102.856 147.458 102.856 147.457 102.856 147.457H105.154L106.115 150.32L109.412 160.102H98.4923L101.889 150.257L102.856 147.457L102.855 147.459ZM107.018 140.493C107.018 140.494 107.018 140.495 107.019 140.496L107.018 140.493ZM113.005 170.247C113.102 170.303 113.495 170.477 114.632 170.477H116.824C117.473 170.477 117.844 170.419 118.039 170.369C118.025 170.299 118.003 170.217 117.972 170.122L107.036 140.543C106.938 140.487 106.534 140.307 105.358 140.307H102.765C101.542 140.307 101.16 140.508 101.081 140.56L90.1363 170.162C90.1175 170.228 90.0997 170.284 90.0858 170.336C90.3548 170.401 90.8671 170.477 91.7966 170.477H93.7912C94.692 170.477 94.9036 170.293 94.9046 170.292L97.1741 163.879H110.75L113.005 170.247ZM116.824 172.789H114.632C113.803 172.789 111.286 172.789 110.653 171.029L108.94 166.192H98.9837L97.272 171.025C96.9803 171.833 96.1417 172.789 93.7912 172.789H91.7966C90.7365 172.789 87.5068 172.789 87.5068 170.619C87.5068 170.41 87.5494 170.135 87.7541 169.471L98.7425 139.744C99.4594 137.995 101.948 137.995 102.765 137.995H105.358C106.197 137.995 108.749 137.995 109.385 139.753L120.349 169.415C120.498 169.868 120.567 170.261 120.567 170.619C120.567 171.609 119.917 172.789 116.824 172.789Z" fill="#477665"/>
<path d="M125.839 164.887H125.84H125.839ZM126.035 164.956C125.954 165.015 125.832 165.113 125.668 165.275C125.249 165.688 124.878 166.176 124.566 166.727C124.213 167.35 124.161 167.7 124.161 167.852C124.161 167.854 124.198 168.139 125.009 168.649C125.912 169.262 127.163 169.758 128.765 170.148C130.415 170.552 132.387 170.757 134.628 170.757C136.407 170.757 138.086 170.446 139.618 169.836C141.099 169.245 142.282 168.312 143.234 166.983C144.172 165.675 144.647 163.934 144.647 161.808C144.647 160.108 144.271 158.714 143.529 157.665C142.758 156.572 141.845 155.731 140.818 155.164C139.676 154.532 138.168 153.849 136.338 153.137C135.005 152.599 133.988 152.16 133.3 151.826C132.487 151.432 131.788 150.907 131.221 150.267C130.569 149.536 130.239 148.621 130.239 147.549C130.239 146.839 130.494 145.796 131.711 144.86C132.633 144.153 134.075 143.81 136.123 143.81C137.547 143.81 138.939 144.016 140.259 144.423C140.583 144.534 140.926 144.665 141.332 144.827C141.455 144.878 141.545 144.91 141.611 144.931C141.672 144.886 141.768 144.804 141.897 144.661C142.249 144.273 142.554 143.803 142.803 143.265C143.106 142.611 143.152 142.257 143.152 142.105C143.149 142.105 143.076 141.906 142.568 141.562C141.914 141.134 140.954 140.766 139.732 140.479C138.458 140.182 137.01 140.031 135.426 140.031C133.535 140.031 131.744 140.337 130.104 140.941C128.516 141.526 127.266 142.412 126.286 143.644C125.325 144.85 124.858 146.339 124.858 148.195C124.858 150.434 125.369 152.154 126.376 153.306C127.448 154.532 128.962 155.582 130.877 156.427L133.132 157.333C135.109 158.072 136.542 158.742 137.48 159.372C138.649 160.158 139.267 161.287 139.267 162.638C139.267 164.684 138.175 165.682 137.26 166.16C136.161 166.733 134.84 167.024 133.333 167.024C132.034 167.024 130.873 166.863 129.883 166.545C128.97 166.253 127.946 165.845 126.84 165.333C126.436 165.129 126.184 165.018 126.035 164.956ZM134.628 173.069C132.173 173.069 129.985 172.838 128.127 172.383C126.194 171.912 124.704 171.308 123.57 170.537C122.318 169.753 121.663 168.842 121.663 167.852C121.663 167.194 121.89 166.475 122.354 165.654C122.772 164.918 123.273 164.257 123.847 163.692C124.326 163.219 125.072 162.59 126.003 162.59C126.395 162.59 126.847 162.703 127.997 163.284C128.967 163.732 129.889 164.1 130.699 164.361C131.428 164.594 132.314 164.712 133.333 164.712C134.405 164.712 135.314 164.522 136.034 164.146C136.377 163.967 136.769 163.634 136.769 162.638C136.769 162.024 136.536 161.595 136.014 161.243C135.252 160.734 133.959 160.135 132.166 159.464L129.843 158.53C127.548 157.519 125.741 156.256 124.435 154.759C123.058 153.186 122.36 150.978 122.36 148.195C122.36 145.861 123.004 143.869 124.275 142.273C125.522 140.704 127.172 139.534 129.18 138.793C131.117 138.081 133.218 137.718 135.426 137.718C137.217 137.718 138.871 137.893 140.345 138.239C141.867 138.596 143.106 139.081 144.026 139.685C145.107 140.415 145.649 141.225 145.649 142.105C145.649 142.699 145.469 143.375 145.099 144.175C144.753 144.923 144.319 145.586 143.811 146.147C143.124 146.906 142.419 147.275 141.658 147.275C141.303 147.275 140.895 147.174 140.336 146.948C139.979 146.804 139.675 146.688 139.425 146.601C138.405 146.288 137.279 146.122 136.123 146.122C134.259 146.122 133.558 146.446 133.306 146.639C132.796 147.032 132.736 147.347 132.736 147.549C132.736 148.077 132.871 148.486 133.149 148.799C133.511 149.205 133.939 149.525 134.46 149.779C135.096 150.088 136.059 150.503 137.321 151.012C139.244 151.761 140.856 152.491 142.099 153.179C143.455 153.929 144.639 155.011 145.62 156.399C146.631 157.831 147.145 159.65 147.145 161.808C147.145 164.397 146.529 166.567 145.316 168.259C144.105 169.95 142.52 171.195 140.607 171.96C138.762 172.695 136.749 173.069 134.628 173.069Z" fill="#477665"/>
<path d="M151.598 164.887H151.599H151.598ZM151.795 164.956C151.714 165.015 151.591 165.113 151.427 165.275C151.009 165.688 150.638 166.176 150.324 166.727C149.973 167.35 149.92 167.7 149.92 167.852C149.92 167.854 149.956 168.139 150.768 168.649C151.672 169.262 152.922 169.758 154.523 170.148C156.173 170.552 158.147 170.757 160.387 170.757C162.166 170.757 163.845 170.446 165.377 169.836C166.859 169.245 168.041 168.312 168.993 166.983C169.932 165.675 170.405 163.934 170.405 161.808C170.405 160.108 170.03 158.714 169.289 157.665C168.517 156.572 167.605 155.731 166.576 155.164C165.435 154.532 163.927 153.849 162.097 153.137C160.765 152.599 159.747 152.16 159.058 151.826C158.246 151.432 157.547 150.907 156.979 150.267C156.329 149.536 155.997 148.621 155.997 147.549C155.997 146.839 156.254 145.796 157.471 144.86C158.392 144.153 159.835 143.81 161.883 143.81C163.306 143.81 164.699 144.016 166.018 144.423C166.342 144.534 166.684 144.665 167.091 144.827C167.214 144.878 167.304 144.91 167.369 144.931C167.431 144.886 167.528 144.804 167.657 144.661C168.007 144.273 168.313 143.803 168.563 143.265C168.865 142.611 168.91 142.257 168.91 142.105C168.907 142.105 168.836 141.906 168.326 141.562C167.672 141.134 166.714 140.766 165.491 140.479C164.218 140.182 162.768 140.031 161.185 140.031C159.294 140.031 157.503 140.337 155.863 140.941C154.275 141.526 153.026 142.412 152.045 143.644C151.085 144.85 150.617 146.339 150.617 148.195C150.617 150.434 151.128 152.154 152.135 153.306C153.206 154.532 154.721 155.582 156.637 156.427L158.89 157.333C160.868 158.072 162.3 158.742 163.239 159.372C164.409 160.158 165.027 161.287 165.027 162.638C165.027 164.684 163.935 165.682 163.019 166.16C161.92 166.733 160.599 167.024 159.092 167.024C157.793 167.024 156.632 166.863 155.64 166.545C154.729 166.253 153.705 165.845 152.599 165.333C152.195 165.129 151.944 165.018 151.795 164.956ZM160.387 173.069C157.932 173.069 155.744 172.838 153.886 172.383C151.954 171.912 150.463 171.308 149.328 170.537C148.077 169.753 147.422 168.842 147.422 167.852C147.422 167.194 147.647 166.475 148.113 165.654C148.53 164.918 149.033 164.257 149.605 163.692C150.085 163.219 150.831 162.59 151.762 162.59C152.154 162.59 152.606 162.703 153.757 163.284C154.726 163.732 155.647 164.1 156.459 164.361C157.187 164.594 158.072 164.712 159.092 164.712C160.165 164.712 161.073 164.522 161.793 164.146C162.135 163.967 162.528 163.634 162.528 162.638C162.528 162.024 162.295 161.595 161.773 161.243C161.012 160.734 159.717 160.135 157.926 159.464L155.602 158.53C153.308 157.519 151.501 156.256 150.194 154.759C148.817 153.186 148.12 150.978 148.12 148.195C148.12 145.861 148.764 143.869 150.032 142.273C151.281 140.704 152.932 139.534 154.938 138.793C156.876 138.081 158.976 137.718 161.185 137.718C162.975 137.718 164.63 137.893 166.103 138.239C167.626 138.596 168.864 139.081 169.784 139.685C170.867 140.415 171.409 141.225 171.409 142.105C171.409 142.699 171.229 143.375 170.858 144.175C170.512 144.923 170.079 145.586 169.571 146.147C168.882 146.906 168.177 147.275 167.417 147.275C167.062 147.275 166.654 147.174 166.095 146.948C165.738 146.804 165.434 146.688 165.184 146.601C164.164 146.288 163.038 146.122 161.883 146.122C160.019 146.122 159.318 146.446 159.066 146.639C158.555 147.032 158.495 147.347 158.495 147.549C158.495 148.077 158.631 148.486 158.909 148.799C159.269 149.205 159.698 149.525 160.22 149.779C160.855 150.088 161.817 150.503 163.081 151.012C165.003 151.761 166.616 152.491 167.858 153.179C169.214 153.929 170.397 155.011 171.377 156.399C172.391 157.831 172.903 159.65 172.903 161.808C172.903 164.397 172.288 166.567 171.075 168.259C169.864 169.95 168.28 171.195 166.366 171.96C164.521 172.695 162.509 173.069 160.387 173.069Z" fill="#477665"/>
<path d="M184.871 151.607H188.358C189.038 151.607 189.602 151.359 190.132 150.826C190.681 150.273 190.947 149.608 190.947 148.794C190.947 148.04 190.721 147.497 190.235 147.087C189.72 146.654 188.991 146.443 188.01 146.443H184.871V151.607ZM188.358 153.918H182.373V144.132H188.01C189.619 144.132 190.935 144.551 191.917 145.379C192.931 146.234 193.446 147.383 193.446 148.794C193.446 150.196 192.949 151.406 191.97 152.391C190.961 153.404 189.747 153.918 188.358 153.918ZM177.197 170.205H177.205H177.197ZM195.698 170.228C195.722 170.228 196.081 170.477 197.432 170.477H199.477C200.321 170.477 200.816 170.411 201.093 170.349C201.082 170.318 201.068 170.284 201.053 170.249L196.672 160.113C196.283 159.231 195.784 158.411 195.19 157.681C194.512 156.853 194.034 156.599 193.808 156.523C193.808 156.523 193.208 156.273 193.067 156.109C192.774 155.768 192.793 154.929 193.053 154.565C193.178 154.389 193.807 154.17 193.807 154.17C195.39 153.628 196.6 152.825 197.51 151.716C198.396 150.637 198.825 149.394 198.825 147.917C198.825 144.689 197.668 140.398 187.66 140.398H177.938C177.44 140.398 177.301 140.498 177.3 140.499C177.3 140.499 177.193 140.628 177.193 141.088V170.157C177.193 170.187 177.196 170.201 177.197 170.204C177.206 170.204 177.529 170.477 178.936 170.477H180.631C182.073 170.477 182.377 170.189 182.379 170.187L182.373 157.743H185.567C187.338 157.743 188.624 158.014 189.494 158.572C190.32 159.101 191.045 159.941 191.712 161.139L191.759 161.233L195.697 170.23C195.696 170.228 195.697 170.228 195.698 170.228ZM199.477 172.789H197.432C196.624 172.789 194.165 172.789 193.392 171.12L189.465 162.152C188.894 161.138 188.393 160.679 188.07 160.472C187.827 160.316 187.179 160.055 185.567 160.055H184.871V170.157C184.871 171.14 184.319 172.789 180.631 172.789H178.936C175.247 172.789 174.695 171.14 174.695 170.157V141.088C174.695 140.127 174.977 139.379 175.535 138.864C176.092 138.348 176.9 138.086 177.938 138.086H187.66C198.953 138.086 201.324 143.432 201.324 147.917C201.324 149.889 200.71 151.638 199.499 153.115C198.695 154.095 197.694 154.908 196.507 155.544C196.732 155.764 196.957 156.011 197.182 156.286C197.909 157.179 198.516 158.175 198.988 159.248L203.379 169.405C203.614 169.974 203.717 170.372 203.717 170.711C203.717 171.169 203.514 172.004 202.15 172.466C201.503 172.684 200.63 172.789 199.477 172.789Z" fill="#477665"/>
<path d="M220.664 146.122C218.41 146.122 216.76 146.832 215.621 148.295C214.404 149.855 213.786 152.243 213.786 155.393C213.786 158.547 214.404 160.944 215.623 162.519C216.763 163.995 218.411 164.712 220.664 164.712C222.913 164.712 224.552 163.996 225.678 162.525V162.524C226.881 160.948 227.492 158.55 227.492 155.393C227.492 152.241 226.882 149.851 225.68 148.289C224.556 146.83 222.915 146.122 220.664 146.122ZM220.664 167.024C217.591 167.024 215.211 165.96 213.591 163.865C212.064 161.89 211.29 159.04 211.29 155.393C211.29 151.748 212.065 148.904 213.595 146.942C215.215 144.863 217.594 143.81 220.664 143.81C223.738 143.81 226.109 144.865 227.714 146.948C229.225 148.909 229.99 151.75 229.99 155.393C229.99 159.037 229.225 161.885 227.717 163.859C226.113 165.959 223.739 167.024 220.664 167.024ZM220.664 140.031C215.839 140.031 212.262 141.301 209.728 143.914C207.194 146.529 205.909 150.39 205.909 155.393C205.909 160.397 207.194 164.259 209.728 166.873C212.262 169.486 215.838 170.757 220.664 170.757C225.488 170.757 229.057 169.486 231.573 166.875C234.092 164.261 235.369 160.399 235.369 155.393C235.369 150.389 234.092 146.526 231.573 143.912C229.056 141.301 225.487 140.031 220.664 140.031ZM220.664 173.069C215.167 173.069 210.861 171.503 207.869 168.416C204.911 165.366 203.411 160.985 203.411 155.393C203.411 149.802 204.911 145.422 207.869 142.371C210.862 139.284 215.168 137.718 220.664 137.718C226.162 137.718 230.46 139.285 233.437 142.373C236.377 145.425 237.868 149.804 237.868 155.393C237.868 160.984 236.377 165.363 233.437 168.414C230.461 171.503 226.163 173.069 220.664 173.069Z" fill="#477665"/>
<path d="M257.11 146.122C254.856 146.122 253.206 146.832 252.066 148.295C250.851 149.855 250.234 152.243 250.234 155.393C250.234 158.547 250.851 160.944 252.069 162.519C253.208 163.995 254.858 164.712 257.11 164.712C259.358 164.712 260.999 163.996 262.123 162.525V162.524C263.327 160.948 263.938 158.55 263.938 155.393C263.938 152.241 263.328 149.851 262.126 148.289C261.002 146.83 259.361 146.122 257.11 146.122ZM257.11 167.024C254.036 167.024 251.657 165.96 250.037 163.865C248.509 161.89 247.735 159.04 247.735 155.393C247.735 151.748 248.51 148.904 250.04 146.942C251.661 144.863 254.039 143.81 257.11 143.81C260.183 143.81 262.555 144.865 264.16 146.948C265.67 148.909 266.435 151.75 266.435 155.393C266.435 159.037 265.671 161.885 264.163 163.859C262.559 165.959 260.186 167.024 257.11 167.024ZM257.11 140.031C252.287 140.031 248.709 141.301 246.173 143.914C243.641 146.529 242.355 150.39 242.355 155.393C242.355 160.397 243.641 164.259 246.173 166.873C248.708 169.486 252.286 170.757 257.11 170.757C261.934 170.757 265.502 169.486 268.02 166.875C270.538 164.261 271.816 160.399 271.816 155.393C271.816 150.389 270.538 146.526 268.02 143.912C265.502 141.301 261.933 140.031 257.11 140.031ZM257.11 173.069C251.612 173.069 247.308 171.503 244.314 168.416C241.357 165.366 239.857 160.985 239.857 155.393C239.857 149.802 241.357 145.422 244.314 142.371C247.309 139.284 251.613 137.718 257.11 137.718C262.609 137.718 266.906 139.285 269.884 142.373C272.823 145.425 274.313 149.804 274.313 155.393C274.313 160.984 272.823 165.363 269.884 168.414C266.907 171.503 262.61 173.069 257.11 173.069Z" fill="#477665"/>
<path d="M305.621 149.669L307.496 146.487C307.567 146.366 307.754 146.417 307.753 146.557L307.716 170.101C307.716 170.148 307.737 170.191 307.777 170.218C307.923 170.311 308.361 170.477 309.458 170.477H310.903C311.991 170.477 312.43 170.314 312.582 170.232C312.628 170.208 312.653 170.162 312.653 170.111L312.647 140.684C312.647 140.636 312.624 140.594 312.584 140.567C312.439 140.474 312.001 140.307 310.903 140.307H308.31C307.211 140.307 306.523 140.524 306.262 140.957L297.4 155.378L296.469 157.01C296.417 157.1 296.289 157.103 296.232 157.016L294.72 154.64L286.432 140.962C286.169 140.525 285.479 140.307 284.38 140.307H281.738C280.651 140.307 280.211 140.47 280.059 140.552C280.014 140.577 279.988 140.623 279.988 140.674L279.995 170.101C279.995 170.148 280.017 170.191 280.057 170.218C280.203 170.311 280.641 170.477 281.738 170.477H283.184C284.271 170.477 284.711 170.314 284.863 170.232C284.908 170.208 284.932 170.162 284.932 170.111L284.926 150.152L284.939 146.817C284.94 146.611 285.214 146.538 285.316 146.717L287.479 150.468C287.77 150.978 288.125 151.561 288.547 152.22L294.651 162.323C294.81 162.507 295.059 162.68 295.597 162.68H297.044C297.581 162.68 297.83 162.507 297.992 162.322L304.08 152.243C304.514 151.562 304.872 150.978 305.163 150.468L305.621 149.669ZM310.903 172.789H309.458C305.769 172.789 305.217 171.14 305.217 170.157V155.593C305.217 155.453 305.034 155.402 304.961 155.522L300.043 163.645C299.341 164.527 298.304 164.991 297.044 164.991H295.597C294.337 164.991 293.298 164.527 292.597 163.644L292.513 163.524L287.68 155.524C287.608 155.404 287.424 155.454 287.424 155.595V170.157C287.424 171.14 286.873 172.789 283.184 172.789H281.738C278.049 172.789 277.498 171.14 277.498 170.157V140.627C277.498 139.644 278.049 137.995 281.738 137.995H284.38C286.456 137.995 287.879 138.614 288.613 139.834L296.159 152.289C296.214 152.377 296.341 152.378 296.394 152.29L304.086 139.822C304.812 138.614 306.235 137.995 308.31 137.995H310.903C314.593 137.995 315.144 139.644 315.144 140.627V170.157C315.144 171.14 314.593 172.789 310.903 172.789Z" fill="#477665"/>
<path d="M182.265 91.8315H212.131C214.62 91.8315 216.569 89.914 216.569 87.4666C216.569 85.0153 214.579 83.0216 212.131 83.0216H192.954H190.523L192.448 81.5349L201.407 74.6078C211.238 66.9843 215.547 62.7245 215.547 53.9314V53.7749C215.547 43.9497 208.437 37.602 197.436 37.602C190.028 37.602 184.857 39.9394 180.142 45.4205C179.397 46.305 178.928 47.548 178.928 48.6573C178.928 51.2819 180.982 53.3381 183.601 53.3381C185.594 53.3381 186.765 52.2208 187.075 51.8772C189.901 48.8296 192.606 46.8042 196.647 46.8042C201.64 46.8042 204.865 49.9429 204.865 54.798C204.865 59.7987 202.389 62.9513 194.891 69.0791L179.411 81.4963C177.526 83.0216 176.571 84.844 176.571 86.915C176.571 89.9022 178.806 91.8315 182.265 91.8315Z" fill="#477665"/>
<path d="M137.893 54.0029C140.303 54.0029 142.264 52.0726 142.264 49.7005C142.264 47.2858 140.303 45.3217 137.893 45.3217H108.876C106.091 45.3217 103.908 47.5086 103.908 50.2997V91.1949C103.908 93.987 106.091 96.1719 108.876 96.1719H139.445C141.856 96.1719 143.817 94.2415 143.817 91.8694C143.817 89.4537 141.856 87.4907 139.445 87.4907H113.771V74.8992H131.578C133.989 74.8992 135.949 72.9699 135.949 70.5968C135.949 68.1831 133.989 66.219 131.578 66.219H113.771V54.0029H137.893Z" fill="#477665"/>
<path d="M158.914 104.1H141.247L132.714 114.436L124.184 104.1H102.8C98.9067 104.1 94.7909 100.029 94.7909 96.181V45.3081C94.7909 41.3741 98.9067 37.2133 102.8 37.2133H152.543C154.548 34.1924 156.849 31.3855 159.407 28.8381H102.659C93.5413 28.8381 86.4287 35.6058 86.4287 45.0139V96.1483C86.4287 105.412 93.5259 112.473 102.842 112.473H118.738L132.172 127.902L145.605 112.473H169.539C165.617 110.126 162.057 107.303 158.914 104.1Z" fill="#477665"/>
<path d="M205.322 104.311L196.964 114.436L188.608 104.311C171.386 100.477 158.466 85.0643 158.466 66.6758C158.466 45.4141 175.736 28.116 196.965 28.116C218.194 28.116 235.465 45.4141 235.465 66.6758C235.465 85.0643 222.544 100.477 205.322 104.311ZM196.965 19.6745C171.048 19.6745 150.038 40.7174 150.038 66.6758C150.038 87.6167 163.714 105.351 182.606 111.427L196.965 127.902L211.349 111.419C230.228 105.335 243.891 87.6068 243.891 66.6758C243.891 40.7174 222.882 19.6745 196.965 19.6745Z" fill="#477665"/>
</svg>
