<svg width="314" height="165" viewBox="0 0 314 165" fill="none" xmlns="http://www.w3.org/2000/svg">
<path d="M33.5846 120.167C23.2286 120.167 18.1948 125.154 18.1948 135.413C18.1948 140.77 19.4328 144.731 21.8751 147.186L21.876 147.187C24.2897 149.614 28.1457 150.845 33.3366 150.845C34.8156 150.845 36.4349 150.702 38.151 150.424C39.792 150.157 41.113 149.761 42.0772 149.247C42.59 148.977 43.1956 148.564 43.1956 148.128C43.1956 148.118 43.1877 147.869 42.8587 147.101C42.6236 146.55 42.3163 146.051 41.9468 145.621C41.7561 145.399 41.6148 145.312 41.5457 145.285C41.4597 145.312 41.2809 145.375 40.9667 145.522C39.8404 145.992 38.7052 146.37 37.5483 146.662C36.3509 146.964 34.9341 147.118 33.3366 147.118C28.8808 147.118 23.5704 145.094 23.5704 135.459C23.5704 131.694 24.346 128.92 25.9406 126.976C27.5944 124.961 30.1158 123.94 33.4344 123.94C34.9154 123.94 36.2175 124.058 37.3043 124.292C38.3703 124.524 39.2951 124.792 40.0529 125.093C40.4065 125.232 40.6298 125.316 40.7711 125.366C40.859 125.308 40.9983 125.199 41.193 124.997C41.6297 124.542 42.01 124.008 42.3272 123.411C42.7026 122.7 42.7461 122.358 42.7471 122.241C42.7471 122.242 42.7461 122.242 42.7461 122.242C42.7352 122.242 42.6117 122.049 42.0762 121.764C41.2285 121.304 40.0005 120.923 38.4177 120.628C36.7817 120.322 35.1554 120.167 33.5846 120.167ZM33.3366 153.153C27.4176 153.153 22.945 151.671 20.0394 148.748L20.0404 148.749C17.1604 145.855 15.7002 141.368 15.7002 135.413C15.7002 123.765 21.717 117.858 33.5846 117.858C35.3204 117.858 37.1136 118.029 38.9117 118.365C40.7909 118.716 42.2363 119.175 43.331 119.767C44.5966 120.444 45.2427 121.275 45.2427 122.238C45.2427 122.851 45.0234 123.567 44.5689 124.426C44.153 125.21 43.6451 125.917 43.0612 126.527C42.2916 127.33 41.5368 127.722 40.7573 127.722C40.4549 127.722 40.1684 127.649 39.0708 127.215C38.4454 126.966 37.661 126.74 36.7372 126.54C35.8371 126.346 34.7257 126.248 33.4344 126.248C30.9032 126.248 29.1011 126.943 27.9284 128.371C26.6934 129.879 26.066 132.263 26.066 135.459C26.066 143.841 30.2146 144.809 33.3366 144.809C34.7118 144.809 35.9083 144.683 36.8923 144.435C37.9218 144.176 38.9325 143.84 39.8948 143.437C40.6041 143.108 41.0833 142.966 41.5042 142.966C42.1197 142.966 43.0346 143.178 43.901 144.186C44.4227 144.794 44.8534 145.489 45.1804 146.252C45.5282 147.069 45.6912 147.666 45.6912 148.128C45.6912 149.368 44.8939 150.418 43.3191 151.249C42.1058 151.896 40.5103 152.383 38.5827 152.698C36.7243 152.999 34.9598 153.153 33.3366 153.153Z" fill="white"/>
<path d="M50.6785 150.375L50.6805 150.376L50.6785 150.375ZM50.6785 150.375C50.6864 150.38 50.8316 150.475 51.3167 150.475H67.7547C67.8367 150.475 67.8693 150.464 67.8693 150.464C67.8515 150.448 68.0017 150.167 68.0017 149.326V147.897C68.0017 147.142 67.8802 146.839 67.8347 146.749C67.8159 146.748 67.7912 146.748 67.7547 146.748H55.7468V120.762C55.7498 120.731 55.4475 120.442 54.006 120.442H52.3136C50.8711 120.442 50.5688 120.731 50.5659 120.733L50.5718 149.785C50.5718 150.234 50.6736 150.368 50.6785 150.375ZM67.7547 152.783H51.3167C50.2784 152.783 49.4712 152.522 48.915 152.006C48.3587 151.493 48.0771 150.746 48.0771 149.785V120.762C48.0771 119.781 48.6274 118.134 52.3136 118.134H54.006C57.6921 118.134 58.2424 119.781 58.2424 120.762V144.439H67.7547C68.7288 144.439 69.5182 144.838 69.9776 145.564C70.3274 146.121 70.4963 146.883 70.4963 147.897V149.326C70.4963 150.339 70.3274 151.101 69.9786 151.655C69.5182 152.383 68.7288 152.783 67.7547 152.783Z" fill="white"/>
<path d="M86.158 137.897H90.1929L88.211 132.172L86.158 137.897ZM87.061 127.583C87.062 127.582 87.0619 127.581 87.0619 127.581H89.358L90.3174 130.44L93.6122 140.206H82.702L86.0957 130.377L87.0619 127.581L87.061 127.583ZM91.2204 120.628C91.2204 120.629 91.2204 120.63 91.2213 120.631L91.2204 120.628ZM97.2016 150.335C97.2984 150.391 97.6906 150.566 98.8268 150.566H101.017C101.665 150.566 102.036 150.507 102.231 150.458C102.217 150.388 102.195 150.305 102.164 150.211L91.2381 120.679C91.1403 120.622 90.7362 120.442 89.5615 120.442H86.9711C85.7489 120.442 85.3676 120.643 85.2885 120.696L74.3536 150.251C74.3348 150.316 74.317 150.373 74.3032 150.424C74.5719 150.489 75.0837 150.566 76.0124 150.566H78.0052C78.9052 150.566 79.1166 150.382 79.1176 150.381L81.385 143.978H94.949L97.2016 150.335ZM101.017 152.874H98.8268C97.9989 152.874 95.4845 152.874 94.8522 151.116L93.14 146.287H83.193L81.4828 151.112C81.1914 151.919 80.3536 152.874 78.0052 152.874H76.0124C74.9533 152.874 71.7266 152.874 71.7266 150.707C71.7266 150.498 71.769 150.223 71.9736 149.561L82.952 119.881C83.6683 118.134 86.155 118.134 86.9711 118.134H89.5615C90.3993 118.134 92.9493 118.134 93.5846 119.89L104.539 149.504C104.687 149.957 104.757 150.349 104.757 150.707C104.757 151.696 104.108 152.874 101.017 152.874Z" fill="white"/>
<path d="M110.025 144.984H110.026H110.025ZM110.22 145.053C110.139 145.111 110.018 145.209 109.854 145.371C109.435 145.784 109.064 146.271 108.753 146.821C108.401 147.443 108.348 147.792 108.348 147.944C108.348 147.946 108.385 148.231 109.196 148.739C110.098 149.352 111.348 149.847 112.948 150.237C114.596 150.64 116.567 150.845 118.806 150.845C120.583 150.845 122.261 150.534 123.791 149.925C125.271 149.335 126.453 148.403 127.404 147.076C128.341 145.771 128.815 144.032 128.815 141.909C128.815 140.212 128.44 138.821 127.699 137.773C126.928 136.682 126.016 135.843 124.99 135.276C123.85 134.645 122.343 133.964 120.514 133.253C119.182 132.716 118.167 132.277 117.479 131.943C116.667 131.55 115.968 131.026 115.401 130.387C114.75 129.657 114.42 128.743 114.42 127.673C114.42 126.964 114.675 125.923 115.891 124.989C116.812 124.283 118.254 123.94 120.3 123.94C121.722 123.94 123.113 124.146 124.431 124.553C124.756 124.663 125.098 124.794 125.503 124.956C125.627 125.006 125.717 125.038 125.782 125.06C125.843 125.014 125.939 124.932 126.069 124.79C126.419 124.402 126.725 123.934 126.974 123.396C127.276 122.743 127.322 122.39 127.322 122.238C127.319 122.238 127.246 122.039 126.738 121.696C126.085 121.268 125.126 120.901 123.905 120.615C122.632 120.318 121.186 120.167 119.603 120.167C117.713 120.167 115.924 120.472 114.286 121.076C112.699 121.66 111.45 122.544 110.471 123.774C109.511 124.979 109.045 126.465 109.045 128.318C109.045 130.554 109.555 132.271 110.561 133.421C111.632 134.645 113.145 135.693 115.059 136.537L117.311 137.442C119.286 138.179 120.718 138.849 121.655 139.478C122.823 140.263 123.441 141.389 123.441 142.738C123.441 144.781 122.35 145.778 121.435 146.254C120.337 146.827 119.017 147.118 117.512 147.118C116.214 147.118 115.055 146.957 114.065 146.639C113.153 146.347 112.13 145.94 111.025 145.429C110.621 145.226 110.37 145.114 110.22 145.053ZM118.806 153.153C116.353 153.153 114.167 152.922 112.311 152.469C110.379 151.998 108.891 151.395 107.757 150.625C106.507 149.842 105.853 148.932 105.853 147.944C105.853 147.287 106.079 146.569 106.543 145.75C106.96 145.014 107.461 144.355 108.034 143.791C108.513 143.318 109.258 142.691 110.189 142.691C110.58 142.691 111.032 142.803 112.181 143.384C113.15 143.831 114.071 144.199 114.881 144.459C115.609 144.691 116.494 144.809 117.512 144.809C118.583 144.809 119.491 144.62 120.211 144.244C120.553 144.065 120.945 143.733 120.945 142.738C120.945 142.126 120.712 141.697 120.19 141.346C119.429 140.837 118.137 140.239 116.346 139.57L114.025 138.637C111.732 137.627 109.927 136.367 108.622 134.871C107.247 133.301 106.549 131.097 106.549 128.318C106.549 125.988 107.192 123.999 108.462 122.406C109.708 120.839 111.357 119.67 113.362 118.931C115.298 118.22 117.397 117.858 119.603 117.858C121.392 117.858 123.044 118.033 124.517 118.378C126.038 118.734 127.276 119.219 128.195 119.822C129.275 120.551 129.817 121.359 129.817 122.238C129.817 122.831 129.637 123.506 129.268 124.304C128.922 125.051 128.488 125.714 127.98 126.273C127.294 127.032 126.589 127.4 125.829 127.4C125.475 127.4 125.067 127.299 124.508 127.073C124.152 126.93 123.849 126.814 123.599 126.727C122.579 126.415 121.455 126.248 120.3 126.248C118.437 126.248 117.737 126.572 117.485 126.765C116.975 127.157 116.915 127.472 116.915 127.673C116.915 128.2 117.05 128.609 117.328 128.921C117.689 129.327 118.117 129.646 118.638 129.899C119.273 130.208 120.235 130.622 121.496 131.131C123.418 131.879 125.028 132.608 126.27 133.294C127.625 134.043 128.807 135.124 129.787 136.509C130.798 137.939 131.312 139.756 131.312 141.909C131.312 144.494 130.696 146.661 129.484 148.351C128.274 150.039 126.691 151.282 124.779 152.045C122.936 152.78 120.925 153.153 118.806 153.153Z" fill="white"/>
<path d="M135.76 144.984H135.761H135.76ZM135.957 145.053C135.876 145.111 135.753 145.209 135.589 145.371C135.171 145.784 134.801 146.271 134.488 146.821C134.137 147.443 134.084 147.792 134.084 147.944C134.084 147.946 134.12 148.231 134.931 148.739C135.834 149.352 137.083 149.847 138.683 150.237C140.331 150.64 142.303 150.845 144.541 150.845C146.319 150.845 147.996 150.534 149.527 149.925C151.008 149.335 152.188 148.403 153.14 147.076C154.077 145.771 154.55 144.032 154.55 141.909C154.55 140.212 154.175 138.821 153.435 137.773C152.663 136.682 151.753 135.843 150.725 135.276C149.585 134.645 148.078 133.964 146.249 133.253C144.919 132.716 143.902 132.277 143.213 131.943C142.402 131.55 141.704 131.026 141.137 130.387C140.487 129.657 140.156 128.743 140.156 127.673C140.156 126.964 140.412 125.923 141.628 124.989C142.548 124.283 143.99 123.94 146.036 123.94C147.458 123.94 148.849 124.146 150.167 124.553C150.491 124.663 150.833 124.794 151.239 124.956C151.362 125.006 151.452 125.038 151.517 125.06C151.579 125.014 151.675 124.932 151.805 124.79C152.155 124.402 152.46 123.934 152.71 123.396C153.011 122.743 153.057 122.39 153.057 122.238C153.054 122.238 152.983 122.039 152.473 121.696C151.82 121.268 150.862 120.901 149.64 120.615C148.369 120.318 146.92 120.167 145.339 120.167C143.45 120.167 141.66 120.472 140.021 121.076C138.435 121.66 137.187 122.544 136.207 123.774C135.247 124.979 134.78 126.465 134.78 128.318C134.78 130.554 135.291 132.271 136.297 133.421C137.367 134.645 138.88 135.693 140.795 136.537L143.045 137.442C145.021 138.179 146.453 138.849 147.391 139.478C148.559 140.263 149.177 141.389 149.177 142.738C149.177 144.781 148.086 145.778 147.171 146.254C146.073 146.827 144.753 147.118 143.247 147.118C141.95 147.118 140.79 146.957 139.799 146.639C138.888 146.347 137.865 145.94 136.76 145.429C136.357 145.226 136.106 145.114 135.957 145.053ZM144.541 153.153C142.088 153.153 139.903 152.922 138.046 152.469C136.116 151.998 134.626 151.395 133.493 150.625C132.242 149.842 131.588 148.932 131.588 147.944C131.588 147.287 131.813 146.569 132.278 145.75C132.695 145.014 133.197 144.355 133.769 143.791C134.248 143.318 134.993 142.691 135.924 142.691C136.315 142.691 136.767 142.803 137.917 143.384C138.885 143.831 139.806 144.199 140.617 144.459C141.344 144.691 142.228 144.809 143.247 144.809C144.319 144.809 145.227 144.62 145.946 144.244C146.288 144.065 146.68 143.733 146.68 142.738C146.68 142.126 146.447 141.697 145.926 141.346C145.166 140.837 143.871 140.239 142.082 139.57L139.76 138.637C137.468 137.627 135.663 136.367 134.357 134.871C132.982 133.301 132.285 131.097 132.285 128.318C132.285 125.988 132.929 123.999 134.196 122.406C135.444 120.839 137.093 119.67 139.098 118.931C141.033 118.22 143.131 117.858 145.339 117.858C147.127 117.858 148.781 118.033 150.252 118.378C151.773 118.734 153.01 119.219 153.93 119.822C155.012 120.551 155.553 121.359 155.553 122.238C155.553 122.831 155.373 123.506 155.003 124.304C154.657 125.051 154.224 125.714 153.717 126.273C153.029 127.032 152.325 127.4 151.565 127.4C151.21 127.4 150.802 127.299 150.244 127.073C149.887 126.93 149.584 126.814 149.334 126.727C148.314 126.415 147.19 126.248 146.036 126.248C144.174 126.248 143.473 126.572 143.221 126.765C142.711 127.157 142.651 127.472 142.651 127.673C142.651 128.2 142.787 128.609 143.064 128.921C143.424 129.327 143.853 129.646 144.374 129.899C145.009 130.208 145.97 130.622 147.232 131.131C149.153 131.879 150.765 132.608 152.005 133.294C153.36 134.043 154.543 135.124 155.522 136.509C156.534 137.939 157.046 139.756 157.046 141.909C157.046 144.494 156.432 146.661 155.219 148.351C154.01 150.039 152.427 151.282 150.515 152.045C148.671 152.78 146.661 153.153 144.541 153.153Z" fill="white"/>
<path d="M169.002 131.724H172.486C173.166 131.724 173.729 131.477 174.258 130.945C174.808 130.393 175.073 129.729 175.073 128.916C175.073 128.163 174.847 127.622 174.362 127.212C173.847 126.78 173.119 126.569 172.138 126.569H169.002V131.724ZM172.486 134.032H166.507V124.261H172.138C173.746 124.261 175.06 124.68 176.042 125.506C177.055 126.361 177.57 127.508 177.57 128.916C177.57 130.316 177.073 131.525 176.095 132.508C175.087 133.519 173.874 134.032 172.486 134.032ZM161.336 150.294H161.343H161.336ZM179.82 150.316C179.843 150.316 180.202 150.566 181.551 150.566H183.595C184.438 150.566 184.933 150.499 185.21 150.437C185.198 150.406 185.184 150.373 185.169 150.337L180.793 140.218C180.404 139.337 179.906 138.518 179.312 137.789C178.635 136.963 178.157 136.709 177.932 136.633C177.932 136.633 177.332 136.383 177.191 136.22C176.898 135.88 176.917 135.042 177.177 134.678C177.302 134.502 177.931 134.284 177.931 134.284C179.511 133.743 180.721 132.941 181.63 131.834C182.515 130.756 182.944 129.515 182.944 128.041C182.944 124.818 181.788 120.533 171.789 120.533H162.075C161.579 120.533 161.439 120.633 161.438 120.634C161.438 120.634 161.332 120.763 161.332 121.223V150.246C161.332 150.276 161.335 150.29 161.336 150.293C161.344 150.293 161.667 150.566 163.072 150.566H164.766C166.207 150.566 166.511 150.278 166.513 150.276L166.507 137.852H169.698C171.467 137.852 172.752 138.121 173.621 138.679C174.446 139.207 175.171 140.046 175.837 141.241L175.884 141.335L179.819 150.318C179.818 150.316 179.819 150.316 179.82 150.316ZM183.595 152.874H181.551C180.744 152.874 178.288 152.874 177.516 151.207L173.592 142.253C173.021 141.24 172.521 140.783 172.198 140.576C171.955 140.421 171.308 140.16 169.698 140.16H169.002V150.246C169.002 151.227 168.451 152.874 164.766 152.874H163.072C159.387 152.874 158.836 151.227 158.836 150.246V121.223C158.836 120.263 159.118 119.516 159.675 119.002C160.231 118.486 161.039 118.225 162.075 118.225H171.789C183.072 118.225 185.44 123.563 185.44 128.041C185.44 130.01 184.827 131.756 183.617 133.23C182.814 134.208 181.813 135.02 180.628 135.655C180.853 135.876 181.077 136.122 181.303 136.397C182.029 137.288 182.635 138.283 183.107 139.354L187.493 149.495C187.728 150.063 187.831 150.461 187.831 150.799C187.831 151.256 187.629 152.089 186.265 152.551C185.619 152.769 184.747 152.874 183.595 152.874Z" fill="white"/>
<path d="M204.764 126.248C202.512 126.248 200.863 126.958 199.725 128.418C198.509 129.976 197.892 132.36 197.892 135.505C197.892 138.654 198.51 141.047 199.727 142.619C200.866 144.094 202.513 144.809 204.764 144.809C207.01 144.809 208.648 144.095 209.773 142.625V142.624C210.975 141.051 211.586 138.657 211.586 135.505C211.586 132.358 210.976 129.972 209.775 128.412C208.652 126.956 207.012 126.248 204.764 126.248ZM204.764 147.118C201.693 147.118 199.316 146.056 197.697 143.963C196.171 141.991 195.398 139.146 195.398 135.505C195.398 131.865 196.172 129.026 197.701 127.067C199.32 124.992 201.696 123.94 204.764 123.94C207.834 123.94 210.203 124.994 211.807 127.073C213.317 129.031 214.081 131.867 214.081 135.505C214.081 139.143 213.317 141.986 211.81 143.957C210.207 146.055 207.836 147.118 204.764 147.118ZM204.764 120.167C199.943 120.167 196.369 121.435 193.838 124.044C191.305 126.655 190.022 130.51 190.022 135.505C190.022 140.501 191.305 144.357 193.838 146.966C196.369 149.576 199.942 150.845 204.764 150.845C209.583 150.845 213.149 149.576 215.663 146.968C218.179 144.359 219.455 140.503 219.455 135.505C219.455 130.509 218.179 126.652 215.663 124.042C213.148 121.435 209.582 120.167 204.764 120.167ZM204.764 153.153C199.271 153.153 194.97 151.589 191.98 148.507C189.025 145.462 187.526 141.089 187.526 135.505C187.526 129.923 189.025 125.549 191.98 122.504C194.971 119.421 199.272 117.858 204.764 117.858C210.257 117.858 214.551 119.422 217.525 122.506C220.463 125.552 221.951 129.925 221.951 135.505C221.951 141.087 220.463 145.459 217.525 148.505C214.552 151.589 210.258 153.153 204.764 153.153Z" fill="white"/>
<path d="M241.177 126.248C238.924 126.248 237.276 126.958 236.137 128.418C234.923 129.976 234.306 132.36 234.306 135.505C234.306 138.654 234.923 141.047 236.14 142.619C237.278 144.094 238.926 144.809 241.177 144.809C243.422 144.809 245.061 144.095 246.185 142.625V142.624C247.388 141.051 247.998 138.657 247.998 135.505C247.998 132.358 247.389 129.972 246.188 128.412C245.064 126.956 243.425 126.248 241.177 126.248ZM241.177 147.118C238.105 147.118 235.728 146.056 234.11 143.963C232.583 141.991 231.81 139.146 231.81 135.505C231.81 131.865 232.584 129.026 234.113 127.067C235.732 124.992 238.108 123.94 241.177 123.94C244.246 123.94 246.617 124.994 248.22 127.073C249.729 129.031 250.493 131.867 250.493 135.505C250.493 139.143 249.73 141.986 248.223 143.957C246.62 146.055 244.249 147.118 241.177 147.118ZM241.177 120.167C236.357 120.167 232.783 121.435 230.25 124.044C227.719 126.655 226.435 130.51 226.435 135.505C226.435 140.501 227.719 144.357 230.25 146.966C232.782 149.576 236.356 150.845 241.177 150.845C245.996 150.845 249.561 149.576 252.076 146.968C254.592 144.359 255.869 140.503 255.869 135.505C255.869 130.509 254.592 126.652 252.076 124.042C249.561 121.435 245.995 120.167 241.177 120.167ZM241.177 153.153C235.684 153.153 231.383 151.589 228.392 148.507C225.437 145.462 223.939 141.089 223.939 135.505C223.939 129.923 225.437 125.549 228.392 122.504C231.384 119.421 235.685 117.858 241.177 117.858C246.67 117.858 250.964 119.422 253.938 122.506C256.875 125.552 258.364 129.925 258.364 135.505C258.364 141.087 256.875 145.459 253.938 148.505C250.965 151.589 246.671 153.153 241.177 153.153Z" fill="white"/>
<path d="M289.643 129.79L291.516 126.613C291.587 126.492 291.774 126.543 291.773 126.683L291.736 150.19C291.736 150.236 291.757 150.28 291.798 150.306C291.943 150.399 292.381 150.566 293.476 150.566H294.921C296.008 150.566 296.446 150.402 296.598 150.32C296.644 150.297 296.669 150.251 296.669 150.2L296.663 120.819C296.663 120.772 296.64 120.729 296.6 120.702C296.455 120.609 296.017 120.442 294.921 120.442H292.33C291.232 120.442 290.544 120.66 290.284 121.092L281.43 135.49L280.499 137.12C280.448 137.21 280.319 137.213 280.263 137.126L278.752 134.753L270.471 121.097C270.208 120.66 269.52 120.442 268.421 120.442H265.782C264.696 120.442 264.256 120.606 264.105 120.688C264.059 120.712 264.034 120.758 264.034 120.809L264.041 150.19C264.041 150.236 264.062 150.28 264.103 150.306C264.248 150.399 264.686 150.566 265.782 150.566H267.227C268.313 150.566 268.752 150.402 268.904 150.32C268.949 150.297 268.973 150.251 268.973 150.2L268.968 130.272L268.98 126.942C268.981 126.737 269.255 126.664 269.357 126.842L271.518 130.587C271.809 131.096 272.163 131.679 272.585 132.337L278.683 142.424C278.842 142.608 279.091 142.78 279.629 142.78H281.074C281.611 142.78 281.86 142.608 282.021 142.423L288.104 132.36C288.537 131.68 288.895 131.096 289.186 130.587L289.643 129.79ZM294.921 152.874H293.476C289.791 152.874 289.24 151.227 289.24 150.246V135.705C289.24 135.565 289.057 135.514 288.984 135.633L284.071 143.744C283.369 144.624 282.333 145.088 281.074 145.088H279.629C278.369 145.088 277.332 144.624 276.631 143.743L276.547 143.623L271.719 135.635C271.647 135.516 271.463 135.566 271.463 135.707V150.246C271.463 151.227 270.912 152.874 267.227 152.874H265.782C262.096 152.874 261.546 151.227 261.546 150.246V120.762C261.546 119.781 262.096 118.134 265.782 118.134H268.421C270.496 118.134 271.918 118.752 272.651 119.971L280.19 132.406C280.244 132.494 280.372 132.495 280.425 132.407L288.11 119.959C288.835 118.752 290.257 118.134 292.33 118.134H294.921C298.607 118.134 299.157 119.781 299.157 120.762V150.246C299.157 151.227 298.607 152.874 294.921 152.874Z" fill="white"/>
<path d="M166.4 72.0439H196.239C198.725 72.0439 200.673 70.1294 200.673 67.6859C200.673 65.2385 198.684 63.2479 196.239 63.2479H177.079H174.65L176.573 61.7636L185.524 54.8473C195.346 47.236 199.651 42.9828 199.651 34.2036V34.0473C199.651 24.2377 192.548 17.9 181.556 17.9C174.155 17.9 168.989 20.2337 164.279 25.7061C163.534 26.5892 163.065 27.8303 163.065 28.9378C163.065 31.5583 165.117 33.6112 167.734 33.6112C169.725 33.6112 170.895 32.4958 171.205 32.1526C174.029 29.1099 176.731 27.0876 180.769 27.0876C185.757 27.0876 188.979 30.2214 188.979 35.0688C188.979 40.0617 186.505 43.2093 179.014 49.3275L163.548 61.725C161.664 63.2479 160.711 65.0674 160.711 67.1351C160.711 70.1176 162.944 72.0439 166.4 72.0439Z" fill="white"/>
<path d="M122.067 34.2751C124.475 34.2751 126.434 32.3478 126.434 29.9794C126.434 27.5685 124.475 25.6076 122.067 25.6076H93.0769C90.2937 25.6076 88.1133 27.791 88.1133 30.5776V71.4083C88.1133 74.196 90.2937 76.3774 93.0769 76.3774H123.618C126.027 76.3774 127.986 74.4501 127.986 72.0818C127.986 69.6699 126.027 67.71 123.618 67.71H97.9674V55.1384H115.758C118.167 55.1384 120.125 53.2121 120.125 50.8427C120.125 48.4328 118.167 46.4719 115.758 46.4719H97.9674V34.2751H122.067Z" fill="white"/>
<path d="M143.07 84.2925H125.419L116.894 94.6124L108.372 84.2925H87.0068C83.1171 84.2925 79.005 80.2282 79.005 76.3864V25.5938C79.005 21.666 83.1171 17.5117 87.0068 17.5117H136.705C138.708 14.4956 141.007 11.6931 143.563 9.14975H86.8655C77.7565 9.14975 70.6504 15.9067 70.6504 25.3001V76.3537C70.6504 85.6027 77.7411 92.6524 87.0492 92.6524H102.93L116.352 108.057L129.773 92.6524H153.685C149.767 90.3098 146.21 87.4905 143.07 84.2925Z" fill="white"/>
<path d="M189.435 84.5031L181.085 94.6124L172.736 84.5031C155.53 80.6751 142.622 65.2872 142.622 46.9278C142.622 25.6996 159.876 8.42885 181.086 8.42885C202.296 8.42885 219.551 25.6996 219.551 46.9278C219.551 65.2872 206.642 80.6751 189.435 84.5031ZM181.086 0.000657482C155.192 0.000657482 134.201 21.0103 134.201 46.9278C134.201 67.8356 147.865 85.5414 166.739 91.6082L181.086 108.057L195.457 91.6003C214.318 85.5256 227.969 67.8257 227.969 46.9278C227.969 21.0103 206.979 0.000657482 181.086 0.000657482Z" fill="white"/>
</svg>
