<svg width="558" height="153" viewBox="0 0 558 153" fill="none" xmlns="http://www.w3.org/2000/svg">
<path d="M213.789 98.0944C203.421 98.0944 198.381 103.074 198.381 113.32C198.381 118.669 199.621 122.624 202.066 125.076L202.067 125.077C204.483 127.5 208.344 128.729 213.541 128.729C215.021 128.729 216.643 128.587 218.361 128.309C220.004 128.042 221.326 127.647 222.292 127.134C222.805 126.864 223.411 126.452 223.411 126.017C223.411 126.007 223.403 125.758 223.074 124.991C222.839 124.441 222.531 123.942 222.161 123.512C221.97 123.291 221.829 123.204 221.759 123.178C221.673 123.204 221.494 123.268 221.18 123.414C220.052 123.884 218.916 124.261 217.757 124.552C216.559 124.854 215.14 125.008 213.541 125.008C209.08 125.008 203.763 122.987 203.763 113.365C203.763 109.606 204.54 106.836 206.136 104.894C207.792 102.882 210.316 101.863 213.639 101.863C215.121 101.863 216.425 101.98 217.513 102.214C218.58 102.445 219.506 102.713 220.265 103.014C220.619 103.152 220.842 103.236 220.984 103.287C221.072 103.228 221.211 103.12 221.406 102.917C221.844 102.463 222.224 101.93 222.542 101.334C222.918 100.624 222.961 100.283 222.962 100.165C222.962 100.166 222.961 100.166 222.961 100.166C222.95 100.166 222.827 99.9736 222.291 99.6892C221.442 99.23 220.212 98.8498 218.628 98.5545C216.99 98.2494 215.362 98.0944 213.789 98.0944ZM213.541 131.034C207.615 131.034 203.137 129.554 200.228 126.636L200.229 126.637C197.346 123.747 195.884 119.266 195.884 113.32C195.884 101.688 201.908 95.7886 213.789 95.7886C215.527 95.7886 217.322 95.9594 219.122 96.2952C221.004 96.6457 222.451 97.1039 223.547 97.6954C224.814 98.3709 225.461 99.2014 225.461 100.162C225.461 100.774 225.241 101.489 224.786 102.348C224.37 103.131 223.861 103.837 223.277 104.446C222.506 105.248 221.751 105.639 220.97 105.639C220.667 105.639 220.381 105.566 219.282 105.132C218.656 104.884 217.87 104.658 216.945 104.459C216.044 104.265 214.931 104.167 213.639 104.167C211.105 104.167 209.3 104.861 208.126 106.287C206.89 107.793 206.262 110.173 206.262 113.365C206.262 121.735 210.415 122.702 213.541 122.702C214.918 122.702 216.115 122.576 217.101 122.328C218.131 122.07 219.143 121.734 220.107 121.332C220.817 121.003 221.297 120.862 221.718 120.862C222.334 120.862 223.25 121.073 224.117 122.08C224.64 122.687 225.071 123.381 225.398 124.143C225.747 124.959 225.91 125.555 225.91 126.017C225.91 127.255 225.112 128.303 223.535 129.133C222.32 129.779 220.723 130.266 218.793 130.58C216.932 130.88 215.166 131.034 213.541 131.034Z" fill="#477665"/>
<path d="M230.903 128.261L230.905 128.262L230.903 128.261ZM230.903 128.261C230.911 128.266 231.057 128.361 231.542 128.361H247.999C248.081 128.361 248.114 128.35 248.114 128.35C248.096 128.335 248.247 128.054 248.247 127.214V125.787C248.247 125.033 248.125 124.73 248.079 124.64C248.061 124.639 248.036 124.639 247.999 124.639H235.977V98.69C235.98 98.6594 235.678 98.371 234.235 98.371H232.54C231.096 98.371 230.793 98.6594 230.79 98.6614L230.796 127.673C230.796 128.121 230.898 128.255 230.903 128.261ZM247.999 130.666H231.542C230.503 130.666 229.694 130.405 229.138 129.891C228.581 129.378 228.299 128.632 228.299 127.673V98.69C228.299 97.7104 228.85 96.0662 232.54 96.0662H234.235C237.925 96.0662 238.476 97.7104 238.476 98.69V122.334H247.999C248.975 122.334 249.765 122.732 250.225 123.457C250.575 124.013 250.744 124.775 250.744 125.787V127.214C250.744 128.226 250.575 128.986 250.226 129.54C249.765 130.267 248.975 130.666 247.999 130.666Z" fill="#477665"/>
<path d="M266.425 115.801H270.464L268.48 110.084L266.425 115.801ZM267.329 105.501C267.33 105.5 267.33 105.499 267.33 105.499H269.629L270.589 108.354L273.888 118.107H262.965L266.362 108.291L267.33 105.499L267.329 105.501ZM271.493 98.5561C271.493 98.5571 271.493 98.5581 271.494 98.5591L271.493 98.5561ZM277.481 128.221C277.578 128.278 277.971 128.452 279.108 128.452H281.301C281.95 128.452 282.321 128.393 282.517 128.344C282.502 128.274 282.48 128.192 282.45 128.097L271.511 98.6065C271.413 98.5502 271.008 98.3705 269.832 98.3705H267.239C266.015 98.3705 265.633 98.571 265.554 98.6233L254.607 128.138C254.588 128.203 254.57 128.259 254.556 128.31C254.825 128.375 255.338 128.452 256.267 128.452H258.262C259.164 128.452 259.375 128.268 259.376 128.267L261.646 121.873H275.226L277.481 128.221ZM281.301 130.756H279.108C278.28 130.756 275.762 130.756 275.129 129.002L273.415 124.179H263.456L261.744 128.998C261.452 129.803 260.614 130.756 258.262 130.756H256.267C255.207 130.756 251.977 130.756 251.977 128.593C251.977 128.384 252.019 128.11 252.224 127.448L263.215 97.8096C263.932 96.0657 266.422 96.0657 267.239 96.0657H269.832C270.671 96.0657 273.224 96.0657 273.86 97.8185L284.828 127.392C284.976 127.844 285.045 128.235 285.045 128.593C285.045 129.58 284.395 130.756 281.301 130.756Z" fill="#477665"/>
<path d="M290.319 122.877H290.32H290.319ZM290.515 122.946C290.433 123.004 290.312 123.102 290.148 123.264C289.728 123.675 289.357 124.162 289.046 124.711C288.693 125.332 288.64 125.681 288.64 125.833C288.64 125.835 288.677 126.119 289.489 126.627C290.392 127.238 291.643 127.733 293.246 128.122C294.895 128.525 296.869 128.729 299.11 128.729C300.89 128.729 302.569 128.419 304.101 127.811C305.583 127.221 306.766 126.291 307.718 124.966C308.656 123.663 309.131 121.927 309.131 119.806C309.131 118.112 308.755 116.722 308.013 115.676C307.242 114.587 306.329 113.748 305.301 113.182C304.16 112.552 302.651 111.872 300.82 111.162C299.487 110.626 298.47 110.187 297.782 109.854C296.969 109.461 296.269 108.938 295.702 108.3C295.05 107.571 294.719 106.659 294.719 105.59C294.719 104.882 294.975 103.843 296.192 102.909C297.114 102.204 298.557 101.863 300.606 101.863C302.03 101.863 303.422 102.068 304.742 102.474C305.067 102.585 305.41 102.715 305.815 102.877C305.939 102.927 306.029 102.959 306.094 102.981C306.156 102.935 306.252 102.853 306.381 102.711C306.732 102.324 307.038 101.856 307.287 101.319C307.59 100.667 307.636 100.314 307.636 100.162C307.633 100.162 307.56 99.9637 307.052 99.621C306.398 99.1944 305.438 98.8271 304.215 98.5417C302.941 98.2455 301.493 98.0944 299.908 98.0944C298.016 98.0944 296.225 98.3995 294.585 99.0019C292.996 99.5855 291.746 100.468 290.766 101.697C289.804 102.9 289.337 104.384 289.337 106.234C289.337 108.467 289.849 110.181 290.856 111.33C291.928 112.552 293.442 113.599 295.358 114.441L297.614 115.345C299.591 116.082 301.024 116.75 301.963 117.378C303.132 118.162 303.75 119.287 303.75 120.634C303.75 122.674 302.658 123.669 301.742 124.145C300.643 124.717 299.322 125.008 297.814 125.008C296.516 125.008 295.354 124.847 294.363 124.53C293.45 124.238 292.427 123.831 291.32 123.321C290.916 123.118 290.664 123.007 290.515 122.946ZM299.11 131.034C296.654 131.034 294.466 130.804 292.608 130.351C290.674 129.881 289.183 129.278 288.049 128.51C286.796 127.728 286.142 126.82 286.142 125.833C286.142 125.176 286.368 124.459 286.833 123.642C287.25 122.907 287.752 122.248 288.326 121.686C288.805 121.214 289.551 120.587 290.483 120.587C290.875 120.587 291.327 120.699 292.477 121.279C293.447 121.725 294.369 122.092 295.18 122.352C295.909 122.584 296.796 122.702 297.814 122.702C298.887 122.702 299.796 122.513 300.517 122.138C300.859 121.959 301.252 121.627 301.252 120.634C301.252 120.023 301.018 119.594 300.496 119.244C299.734 118.736 298.44 118.139 296.647 117.47L294.324 116.539C292.028 115.531 290.221 114.271 288.914 112.778C287.537 111.21 286.839 109.009 286.839 106.234C286.839 103.908 287.483 101.921 288.754 100.33C290.001 98.7658 291.652 97.5987 293.66 96.86C295.598 96.15 297.7 95.7886 299.908 95.7886C301.7 95.7886 303.353 95.9633 304.828 96.308C306.35 96.6635 307.59 97.1474 308.51 97.7497C309.592 98.4775 310.134 99.2853 310.134 100.162C310.134 100.755 309.954 101.429 309.584 102.226C309.238 102.972 308.804 103.633 308.295 104.192C307.608 104.95 306.902 105.317 306.142 105.317C305.787 105.317 305.378 105.216 304.819 104.991C304.462 104.848 304.159 104.732 303.908 104.645C302.888 104.333 301.762 104.167 300.606 104.167C298.741 104.167 298.04 104.49 297.788 104.683C297.277 105.075 297.217 105.389 297.217 105.59C297.217 106.117 297.352 106.525 297.63 106.837C297.992 107.242 298.421 107.56 298.942 107.813C299.578 108.121 300.541 108.535 301.803 109.043C303.727 109.79 305.34 110.518 306.583 111.203C307.939 111.951 309.123 113.03 310.104 114.414C311.116 115.842 311.63 117.656 311.63 119.806C311.63 122.388 311.014 124.551 309.801 126.239C308.589 127.925 307.004 129.166 305.09 129.928C303.245 130.662 301.232 131.034 299.11 131.034Z" fill="#477665"/>
<path d="M316.087 122.877H316.088H316.087ZM316.284 122.946C316.203 123.004 316.08 123.102 315.916 123.264C315.498 123.675 315.127 124.162 314.813 124.711C314.462 125.332 314.409 125.681 314.409 125.833C314.409 125.835 314.445 126.119 315.257 126.627C316.161 127.238 317.412 127.733 319.013 128.122C320.664 128.525 322.638 128.729 324.879 128.729C326.658 128.729 328.338 128.419 329.87 127.811C331.352 127.221 332.535 126.291 333.487 124.966C334.426 123.663 334.9 121.927 334.9 119.806C334.9 118.112 334.524 116.722 333.783 115.676C333.01 114.587 332.098 113.748 331.07 113.182C329.928 112.552 328.42 111.872 326.589 111.162C325.256 110.626 324.239 110.187 323.549 109.854C322.737 109.461 322.038 108.938 321.47 108.3C320.819 107.571 320.488 106.659 320.488 105.59C320.488 104.882 320.744 103.843 321.962 102.909C322.884 102.204 324.327 101.863 326.375 101.863C327.799 101.863 329.191 102.068 330.511 102.474C330.835 102.585 331.177 102.715 331.584 102.877C331.708 102.927 331.798 102.959 331.863 102.981C331.924 102.935 332.021 102.853 332.151 102.711C332.501 102.324 332.807 101.856 333.057 101.319C333.358 100.667 333.404 100.314 333.404 100.162C333.401 100.162 333.33 99.9637 332.819 99.621C332.166 99.1944 331.207 98.8271 329.984 98.5417C328.711 98.2455 327.26 98.0944 325.677 98.0944C323.786 98.0944 321.994 98.3995 320.353 99.0019C318.765 99.5855 317.516 100.468 316.534 101.697C315.574 102.9 315.106 104.384 315.106 106.234C315.106 108.467 315.617 110.181 316.624 111.33C317.696 112.552 319.211 113.599 321.128 114.441L323.381 115.345C325.359 116.082 326.793 116.75 327.731 117.378C328.901 118.162 329.52 119.287 329.52 120.634C329.52 122.674 328.428 123.669 327.512 124.145C326.412 124.717 325.09 125.008 323.583 125.008C322.284 125.008 321.123 124.847 320.131 124.53C319.219 124.238 318.195 123.831 317.088 123.321C316.685 123.118 316.433 123.007 316.284 122.946ZM324.879 131.034C322.423 131.034 320.235 130.804 318.376 130.351C316.443 129.881 314.952 129.278 313.817 128.51C312.565 127.728 311.91 126.82 311.91 125.833C311.91 125.176 312.136 124.459 312.602 123.642C313.019 122.907 313.521 122.248 314.094 121.686C314.574 121.214 315.32 120.587 316.251 120.587C316.643 120.587 317.095 120.699 318.247 121.279C319.216 121.725 320.138 122.092 320.95 122.352C321.678 122.584 322.563 122.702 323.583 122.702C324.656 122.702 325.565 122.513 326.285 122.138C326.627 121.959 327.02 121.627 327.02 120.634C327.02 120.023 326.787 119.594 326.265 119.244C325.504 118.736 324.208 118.139 322.417 117.47L320.092 116.539C317.797 115.531 315.99 114.271 314.683 112.778C313.306 111.21 312.608 109.009 312.608 106.234C312.608 103.908 313.252 101.921 314.521 100.33C315.771 98.7658 317.422 97.5987 319.429 96.86C321.366 96.15 323.467 95.7886 325.677 95.7886C327.467 95.7886 329.123 95.9633 330.596 96.308C332.119 96.6635 333.357 97.1474 334.278 97.7497C335.361 98.4775 335.903 99.2853 335.903 100.162C335.903 100.755 335.723 101.429 335.353 102.226C335.006 102.972 334.573 103.633 334.065 104.192C333.376 104.95 332.671 105.317 331.91 105.317C331.555 105.317 331.147 105.216 330.588 104.991C330.231 104.848 329.927 104.732 329.677 104.645C328.656 104.333 327.531 104.167 326.375 104.167C324.511 104.167 323.809 104.49 323.557 104.683C323.046 105.075 322.986 105.389 322.986 105.59C322.986 106.117 323.122 106.525 323.4 106.837C323.76 107.242 324.189 107.56 324.711 107.813C325.347 108.121 326.309 108.535 327.573 109.043C329.496 109.79 331.109 110.518 332.352 111.203C333.708 111.951 334.892 113.03 335.872 114.414C336.886 115.842 337.398 117.656 337.398 119.806C337.398 122.388 336.783 124.551 335.569 126.239C334.358 127.925 332.774 129.166 330.859 129.928C329.013 130.662 327.001 131.034 324.879 131.034Z" fill="#477665"/>
<path d="M349.365 109.637H352.852C353.533 109.637 354.097 109.39 354.627 108.859C355.177 108.308 355.443 107.644 355.443 106.832C355.443 106.081 355.216 105.54 354.731 105.131C354.215 104.699 353.486 104.489 352.504 104.489H349.365V109.637ZM352.852 111.942H346.866V102.184H352.504C354.114 102.184 355.43 102.602 356.412 103.427C357.427 104.281 357.942 105.426 357.942 106.832C357.942 108.231 357.445 109.437 356.466 110.419C355.457 111.429 354.242 111.942 352.852 111.942ZM341.689 128.18H341.697H341.689ZM360.195 128.203C360.218 128.203 360.577 128.452 361.929 128.452H363.974C364.819 128.452 365.314 128.385 365.591 128.323C365.579 128.293 365.566 128.259 365.551 128.223L361.169 118.118C360.78 117.239 360.281 116.421 359.686 115.693C359.009 114.868 358.53 114.615 358.304 114.539C358.304 114.539 357.704 114.289 357.563 114.126C357.27 113.786 357.289 112.95 357.549 112.586C357.674 112.411 358.303 112.192 358.303 112.192C359.886 111.652 361.097 110.851 362.007 109.746C362.893 108.67 363.322 107.431 363.322 105.958C363.322 102.74 362.165 98.4613 352.155 98.4613H342.43C341.932 98.4613 341.793 98.5611 341.792 98.5621C341.792 98.5621 341.685 98.6905 341.685 99.1497V128.133C341.685 128.162 341.688 128.176 341.689 128.179C341.698 128.179 342.021 128.452 343.428 128.452H345.123C346.566 128.452 346.87 128.164 346.872 128.162L346.866 115.755H350.061C351.833 115.755 353.118 116.025 353.989 116.582C354.815 117.109 355.541 117.947 356.207 119.14L356.255 119.234L360.194 128.205C360.193 128.203 360.194 128.203 360.195 128.203ZM363.974 130.756H361.929C361.12 130.756 358.662 130.756 357.888 129.092L353.96 120.151C353.388 119.139 352.888 118.682 352.564 118.476C352.321 118.321 351.673 118.06 350.061 118.06H349.365V128.133C349.365 129.112 348.813 130.756 345.123 130.756H343.428C339.738 130.756 339.187 129.112 339.187 128.133V99.1497C339.187 98.1918 339.468 97.4452 340.026 96.9317C340.583 96.4173 341.392 96.1566 342.43 96.1566H352.155C363.451 96.1566 365.822 101.487 365.822 105.958C365.822 107.924 365.208 109.668 363.997 111.141C363.193 112.117 362.191 112.928 361.004 113.562C361.229 113.782 361.454 114.028 361.679 114.303C362.406 115.192 363.014 116.186 363.485 117.255L367.877 127.382C368.113 127.95 368.215 128.347 368.215 128.685C368.215 129.141 368.013 129.973 366.648 130.434C366.001 130.652 365.127 130.756 363.974 130.756Z" fill="#477665"/>
<path d="M385.168 104.167C382.913 104.167 381.262 104.875 380.123 106.334C378.905 107.889 378.288 110.27 378.288 113.411C378.288 116.556 378.906 118.945 380.125 120.515C381.265 121.988 382.914 122.702 385.168 122.702C387.417 122.702 389.057 121.989 390.182 120.521V120.52C391.386 118.949 391.997 116.559 391.997 113.411C391.997 110.268 391.387 107.885 390.184 106.328C389.061 104.874 387.419 104.167 385.168 104.167ZM385.168 125.008C382.093 125.008 379.713 123.947 378.092 121.857C376.565 119.888 375.791 117.047 375.791 113.411C375.791 109.776 376.566 106.941 378.096 104.985C379.717 102.912 382.096 101.863 385.168 101.863C388.242 101.863 390.614 102.914 392.219 104.991C393.73 106.946 394.496 109.778 394.496 113.411C394.496 117.044 393.73 119.883 392.222 121.852C390.618 123.946 388.244 125.008 385.168 125.008ZM385.168 98.0944C380.342 98.0944 376.763 99.3603 374.229 101.966C371.694 104.573 370.409 108.423 370.409 113.411C370.409 118.4 371.694 122.25 374.229 124.856C376.763 127.462 380.341 128.729 385.168 128.729C389.992 128.729 393.562 127.462 396.08 124.858C398.599 122.252 399.876 118.402 399.876 113.411C399.876 108.422 398.599 104.57 396.08 101.964C393.561 99.3603 389.991 98.0944 385.168 98.0944ZM385.168 131.034C379.669 131.034 375.362 129.473 372.369 126.395C369.411 123.354 367.91 118.987 367.91 113.411C367.91 107.837 369.411 103.469 372.369 100.428C375.363 97.3498 379.67 95.7886 385.168 95.7886C390.667 95.7886 394.966 97.3508 397.944 100.43C400.885 103.472 402.375 107.839 402.375 113.411C402.375 118.985 400.885 123.351 397.944 126.393C394.967 129.473 390.668 131.034 385.168 131.034Z" fill="#477665"/>
<path d="M421.624 104.167C419.368 104.167 417.718 104.875 416.578 106.334C415.362 107.889 414.745 110.27 414.745 113.411C414.745 116.556 415.362 118.945 416.581 120.515C417.72 121.988 419.37 122.702 421.624 122.702C423.872 122.702 425.513 121.989 426.637 120.521V120.52C427.842 118.949 428.453 116.559 428.453 113.411C428.453 110.268 427.843 107.885 426.64 106.328C425.516 104.874 423.875 104.167 421.624 104.167ZM421.624 125.008C418.548 125.008 416.169 123.947 414.548 121.857C413.02 119.888 412.246 117.047 412.246 113.411C412.246 109.776 413.021 106.941 414.551 104.985C416.172 102.912 418.551 101.863 421.624 101.863C424.697 101.863 427.07 102.914 428.675 104.991C430.185 106.946 430.951 109.778 430.951 113.411C430.951 117.044 430.186 119.883 428.678 121.852C427.074 123.946 424.7 125.008 421.624 125.008ZM421.624 98.0944C416.799 98.0944 413.22 99.3603 410.684 101.966C408.151 104.573 406.865 108.423 406.865 113.411C406.865 118.4 408.151 122.25 410.684 124.856C413.219 127.462 416.798 128.729 421.624 128.729C426.449 128.729 430.017 127.462 432.536 124.858C435.055 122.252 436.333 118.402 436.333 113.411C436.333 108.422 435.055 104.57 432.536 101.964C430.017 99.3603 426.448 98.0944 421.624 98.0944ZM421.624 131.034C416.124 131.034 411.818 129.473 408.824 126.395C405.866 123.354 404.366 118.987 404.366 113.411C404.366 107.837 405.866 103.469 408.824 100.428C411.819 97.3498 416.125 95.7886 421.624 95.7886C427.123 95.7886 431.422 97.3508 434.4 100.43C437.34 103.472 438.83 107.839 438.83 113.411C438.83 118.985 437.34 123.351 434.4 126.393C431.423 129.473 427.124 131.034 421.624 131.034Z" fill="#477665"/>
<path d="M470.145 107.705L472.021 104.532C472.092 104.412 472.279 104.462 472.278 104.603L472.241 128.076C472.241 128.123 472.262 128.166 472.303 128.193C472.448 128.286 472.886 128.452 473.983 128.452H475.429C476.517 128.452 476.957 128.289 477.109 128.207C477.154 128.183 477.179 128.138 477.179 128.086L477.173 98.7467C477.173 98.6993 477.15 98.6569 477.111 98.6302C476.966 98.5374 476.527 98.3705 475.429 98.3705H472.836C471.736 98.3705 471.048 98.5877 470.787 99.0193L461.923 113.397L460.991 115.025C460.94 115.114 460.811 115.117 460.755 115.031L459.242 112.662L450.951 99.0242C450.688 98.5878 449.999 98.3705 448.899 98.3705H446.257C445.169 98.3705 444.729 98.5334 444.577 98.6154C444.532 98.6401 444.506 98.6855 444.506 98.7369L444.513 128.076C444.513 128.123 444.535 128.166 444.575 128.193C444.721 128.286 445.159 128.452 446.257 128.452H447.703C448.79 128.452 449.23 128.289 449.383 128.207C449.427 128.183 449.452 128.138 449.452 128.086L449.446 108.186L449.459 104.861C449.46 104.656 449.734 104.584 449.836 104.762L451.999 108.501C452.291 109.01 452.645 109.591 453.067 110.248L459.173 120.322C459.332 120.505 459.582 120.677 460.12 120.677H461.567C462.104 120.677 462.353 120.505 462.514 120.321L468.604 110.272C469.039 109.592 469.397 109.01 469.688 108.501L470.145 107.705ZM475.429 130.756H473.983C470.294 130.756 469.742 129.112 469.742 128.133V113.611C469.742 113.472 469.559 113.421 469.486 113.54L464.567 121.64C463.865 122.519 462.827 122.982 461.567 122.982H460.12C458.859 122.982 457.82 122.519 457.119 121.639L457.035 121.518L452.201 113.542C452.128 113.423 451.945 113.473 451.945 113.613V128.133C451.945 129.112 451.393 130.756 447.703 130.756H446.257C442.567 130.756 442.016 129.112 442.016 128.133V98.6895C442.016 97.7099 442.567 96.0657 446.257 96.0657H448.899C450.976 96.0657 452.4 96.6829 453.133 97.8995L460.682 110.317C460.736 110.405 460.863 110.406 460.917 110.318L468.61 97.8876C469.336 96.6829 470.76 96.0657 472.836 96.0657H475.429C479.12 96.0657 479.671 97.7099 479.671 98.6895V128.133C479.671 129.112 479.12 130.756 475.429 130.756Z" fill="#477665"/>
<path d="M500.951 38.295C498.627 38.295 496.808 40.1111 496.808 42.4307V78.3922C496.808 80.7109 498.627 82.5278 500.951 82.5278H526.877C528.87 82.5278 530.492 80.937 530.492 78.9847C530.492 76.9929 528.87 75.3734 526.877 75.3734H505.966H505.029V74.4393V64.7569V63.8217H505.966H523.578C525.572 63.8217 527.194 62.2329 527.194 60.2786C527.194 58.2888 525.572 56.6693 523.578 56.6693H505.966H505.029V55.7352V46.3816V45.4465H505.966H526.548C528.542 45.4465 530.163 43.8566 530.163 41.9033C530.163 39.9135 528.542 38.295 526.548 38.295H500.951Z" fill="#477665"/>
<path d="M447.341 82.9229C445.523 82.9229 444.169 81.9373 443.316 79.992L439.976 72.1878H418.42L414.945 80.3297C414.23 81.9759 412.836 82.9229 411.123 82.9229C409.021 82.9229 407.375 81.25 407.375 79.1151C407.375 78.5285 407.631 77.8827 407.884 77.3277L423.984 41.0314C424.692 39.4534 426.15 37.5693 429.066 37.5693H429.66C431.959 37.5693 433.646 38.7355 434.676 41.0344L450.771 77.3208C451.082 78.0032 451.22 78.5127 451.22 78.9837C451.22 81.1927 449.515 82.9229 447.341 82.9229ZM421.389 65.0996H437.006L429.198 46.5347L421.389 65.0996Z" fill="#477665"/>
<path d="M200.181 37.9C197.857 37.9 196.037 39.716 196.037 42.0347V78.3912C196.037 80.7108 197.857 82.5278 200.181 82.5278H224.061C226.125 82.5278 227.742 80.9123 227.742 78.8524C227.742 76.7915 226.125 75.1759 224.061 75.1759H205.26H204.322V74.2418V42.0347C204.322 39.716 202.502 37.9 200.181 37.9Z" fill="#477665"/>
<path d="M344.042 37.5026C330.99 37.5026 320.767 47.5642 320.767 60.4095V60.5408C320.767 73.95 330.364 83.3154 344.107 83.3154C349.665 83.3154 354.938 81.8115 359.779 78.844C361.938 77.5623 362.896 75.8193 362.896 73.1867V61.9905C362.896 59.6709 361.076 57.8539 358.751 57.8539H347.142C345.222 57.8539 343.657 59.4131 343.657 61.3308C343.657 63.2436 345.187 64.7426 347.142 64.7426H354.002H354.939V65.6778V72.2653V72.7443L354.549 73.0257C351.865 74.9494 348.368 75.9655 344.437 75.9655C335.788 75.9655 329.513 69.4233 329.513 60.4095V60.2772C329.513 51.845 335.882 44.9839 343.71 44.9839C347.89 44.9839 351.071 45.9822 354.348 48.3196C354.98 48.7788 355.721 49.1985 356.905 49.1985C359.154 49.1985 360.983 47.3736 360.983 45.129C360.983 43.2676 359.774 42.1804 359.254 41.7992C354.938 38.7923 350.383 37.5026 344.042 37.5026Z" fill="#477665"/>
<path d="M270.038 82.9229C268.221 82.9229 266.868 81.9373 266.014 79.992L262.674 72.1878H241.117L237.642 80.3297C236.927 81.9759 235.533 82.9229 233.82 82.9229C231.718 82.9229 230.072 81.25 230.072 79.1151C230.072 78.5275 230.33 77.8827 230.583 77.3287L246.683 41.0314C247.39 39.4534 248.847 37.5693 251.765 37.5693H252.357C254.655 37.5693 256.344 38.7365 257.374 41.0344L273.469 77.3208C273.781 78.0051 273.918 78.5147 273.918 78.9837C273.918 81.1927 272.213 82.9229 270.038 82.9229ZM244.087 65.0996H259.705L251.897 46.5347L244.087 65.0996Z" fill="#477665"/>
<path d="M473.887 37.5026C460.834 37.5026 450.611 47.5642 450.611 60.4095V60.5408C450.611 73.95 460.21 83.3154 473.951 83.3154C479.509 83.3154 484.782 81.8115 489.625 78.844C491.783 77.5623 492.741 75.8193 492.741 73.1867V61.9905C492.741 59.6709 490.92 57.8539 488.598 57.8539H476.986C475.067 57.8539 473.503 59.4131 473.503 61.3308C473.503 63.2436 475.034 64.7426 476.986 64.7426H483.848H484.785V65.6778V72.2653V72.7443L484.394 73.0257C481.711 74.9494 478.213 75.9655 474.282 75.9655C465.636 75.9655 459.359 69.4233 459.359 60.4095V60.2772C459.359 51.845 465.728 44.9839 473.556 44.9839C477.733 44.9839 480.915 45.9822 484.194 48.3196C484.826 48.7788 485.566 49.1985 486.751 49.1985C488.999 49.1985 490.828 47.3736 490.828 45.129C490.828 43.2676 489.619 42.1804 489.099 41.7992C484.785 38.7923 480.23 37.5026 473.887 37.5026Z" fill="#477665"/>
<path d="M372.065 37.8979C369.742 37.8979 367.922 39.7149 367.922 42.0335V63.7021C367.922 76.3074 374.689 83.2505 386.974 83.2505C399.431 83.2505 406.291 76.1919 406.291 63.3722V42.0335C406.291 39.7149 404.47 37.8979 402.148 37.8979C399.824 37.8979 398.004 39.7149 398.004 42.0335V63.7682C398.004 71.3937 394.032 75.7672 387.105 75.7672C380.179 75.7672 376.208 71.2742 376.208 63.4394V42.0335C376.208 39.7149 374.389 37.8979 372.065 37.8979Z" fill="#477665"/>
<path d="M281.497 38.0314C279.174 38.0314 277.354 39.8484 277.354 42.168V78.8514C277.354 81.097 279.182 82.9229 281.431 82.9229C283.679 82.9229 285.507 81.097 285.507 78.8514V54.1542V51.3853L287.189 53.5864L307.508 80.1944C308.753 81.7942 309.95 82.7895 312.041 82.7895H312.37C314.692 82.7895 316.512 80.9725 316.512 78.6549V41.9685C316.512 39.725 314.684 37.9001 312.437 37.9001C310.189 37.9001 308.359 39.725 308.359 41.9685V65.7444V68.5163L306.677 66.3112L287.085 40.6255C285.838 39.0268 284.642 38.0314 282.551 38.0314H281.497Z" fill="#477665"/>
<path d="M119.438 95.481H149.311C151.801 95.481 153.751 93.5691 153.751 91.129C153.751 88.685 151.759 86.6972 149.311 86.6972H130.129H127.698L129.623 85.215L138.584 78.3084C148.418 70.7077 152.728 66.4605 152.728 57.6935V57.5375C152.728 47.7416 145.616 41.4127 134.612 41.4127C127.202 41.4127 122.03 43.7432 117.314 49.208C116.568 50.0898 116.099 51.3291 116.099 52.4351C116.099 55.052 118.154 57.102 120.774 57.102C122.767 57.102 123.938 55.9881 124.249 55.6454C127.076 52.6069 129.781 50.5875 133.824 50.5875C138.818 50.5875 142.043 53.7169 142.043 58.5576C142.043 63.5434 139.566 66.6866 132.067 72.7962L116.583 85.1765C114.697 86.6972 113.742 88.5142 113.742 90.579C113.742 93.5573 115.978 95.481 119.438 95.481Z" fill="#477665"/>
<path d="M75.054 57.7651C77.4645 57.7651 79.4259 55.8405 79.4259 53.4754C79.4259 51.0679 77.4645 49.1097 75.054 49.1097H46.0299C43.2436 49.1097 41.0605 51.2901 41.0605 54.0729V94.8464C41.0605 97.6302 43.2436 99.8086 46.0299 99.8086H76.6069C79.0184 99.8086 80.9799 97.884 80.9799 95.5189C80.9799 93.1104 79.0184 91.1532 76.6069 91.1532H50.9261V78.5992H68.7374C71.1489 78.5992 73.1093 76.6756 73.1093 74.3096C73.1093 71.903 71.1489 69.9448 68.7374 69.9448H50.9261V57.7651H75.054Z" fill="#477665"/>
<path d="M96.0807 107.712H78.41L69.8748 118.018L61.3425 107.712H39.9526C36.0584 107.712 31.9415 103.654 31.9415 99.8174V49.0958C31.9415 45.1735 36.0584 41.025 39.9526 41.025H89.7088C91.7137 38.0132 94.0155 35.2146 96.5743 32.6748H39.8111C30.6916 32.6748 23.5771 39.4223 23.5771 48.8025V99.7848C23.5771 109.021 30.6761 116.061 39.9951 116.061H55.8944L69.3317 131.444L82.769 116.061H106.709C102.786 113.721 99.2252 110.906 96.0807 107.712Z" fill="#477665"/>
<path d="M142.5 107.923L134.14 118.018L125.782 107.923C108.555 104.1 95.6325 88.7338 95.6325 70.4C95.6325 49.2015 112.907 31.9549 134.141 31.9549C155.376 31.9549 172.651 49.2015 172.651 70.4C172.651 88.7338 159.727 104.1 142.5 107.923ZM134.141 23.5385C108.217 23.5385 87.2021 44.5188 87.2021 70.4C87.2021 91.2786 100.882 108.96 119.778 115.018L134.141 131.444L148.529 115.01C167.413 108.944 181.079 91.2687 181.079 70.4C181.079 44.5188 160.064 23.5385 134.141 23.5385Z" fill="#477665"/>
</svg>
