<svg width="535" height="126" viewBox="0 0 535 126" fill="none" xmlns="http://www.w3.org/2000/svg">
<path d="M202.22 78.7677C191.84 78.7677 186.795 83.7659 186.795 94.0488C186.795 99.4177 188.036 103.387 190.484 105.848L190.485 105.849C192.904 108.281 196.768 109.515 201.971 109.515C203.453 109.515 205.076 109.373 206.796 109.093C208.441 108.825 209.765 108.429 210.731 107.914C211.245 107.643 211.852 107.23 211.852 106.793C211.852 106.783 211.844 106.533 211.514 105.763C211.279 105.211 210.971 104.71 210.601 104.279C210.409 104.057 210.268 103.97 210.199 103.943C210.112 103.97 209.933 104.033 209.618 104.18C208.489 104.652 207.352 105.03 206.192 105.323C204.992 105.626 203.572 105.78 201.971 105.78C197.505 105.78 192.183 103.752 192.183 94.0944C192.183 90.3212 192.96 87.5411 194.558 85.5926C196.216 83.5727 198.743 82.5498 202.069 82.5498C203.553 82.5498 204.858 82.6678 205.948 82.9027C207.016 83.1346 207.943 83.4032 208.702 83.7055C209.057 83.8442 209.281 83.9285 209.422 83.979C209.51 83.9206 209.65 83.8115 209.845 83.6083C210.283 83.1524 210.664 82.6172 210.982 82.0196C211.358 81.307 211.402 80.964 211.403 80.8461C211.403 80.8471 211.402 80.8471 211.402 80.8471C211.391 80.8471 211.267 80.6538 210.73 80.3684C209.881 79.9075 208.65 79.5259 207.064 79.2295C205.424 78.9233 203.794 78.7677 202.22 78.7677ZM201.971 111.829C196.039 111.829 191.556 110.343 188.644 107.414L188.645 107.415C185.758 104.514 184.295 100.017 184.295 94.0488C184.295 82.3744 190.325 76.4534 202.22 76.4534C203.959 76.4534 205.756 76.6249 207.559 76.9619C209.442 77.3137 210.891 77.7736 211.988 78.3673C213.256 79.0452 213.904 79.8788 213.904 80.8431C213.904 81.4576 213.684 82.1752 213.229 83.0365C212.812 83.8224 212.303 84.5311 211.717 85.1426C210.946 85.9474 210.19 86.3399 209.408 86.3399C209.105 86.3399 208.818 86.2666 207.718 85.8315C207.091 85.5827 206.305 85.3557 205.379 85.1555C204.477 84.9612 203.363 84.8631 202.069 84.8631C199.532 84.8631 197.726 85.5589 196.551 86.9901C195.313 88.5015 194.684 90.8911 194.684 94.0944C194.684 102.495 198.842 103.466 201.971 103.466C203.349 103.466 204.548 103.34 205.535 103.091C206.566 102.831 207.579 102.494 208.544 102.091C209.255 101.761 209.735 101.619 210.157 101.619C210.774 101.619 211.691 101.831 212.559 102.841C213.082 103.451 213.514 104.147 213.841 104.913C214.19 105.731 214.353 106.329 214.353 106.793C214.353 108.036 213.554 109.087 211.976 109.921C210.76 110.569 209.161 111.058 207.229 111.373C205.366 111.674 203.598 111.829 201.971 111.829Z" fill="white"/>
<path d="M219.352 109.046L219.354 109.047L219.352 109.046ZM219.352 109.046C219.36 109.051 219.506 109.146 219.992 109.146H236.467C236.549 109.146 236.582 109.135 236.582 109.135C236.564 109.119 236.714 108.838 236.714 107.995V106.562C236.714 105.806 236.593 105.502 236.547 105.412C236.528 105.411 236.504 105.411 236.467 105.411H224.432V79.3659C224.435 79.3352 224.132 79.0458 222.687 79.0458H220.991C219.545 79.0458 219.242 79.3352 219.239 79.3371L219.245 108.455C219.245 108.905 219.347 109.039 219.352 109.046ZM236.467 111.459H219.992C218.951 111.459 218.142 111.198 217.585 110.681C217.027 110.167 216.745 109.418 216.745 108.455V79.3659C216.745 78.3827 217.297 76.7325 220.991 76.7325H222.687C226.382 76.7325 226.933 78.3827 226.933 79.3659V103.096H236.467C237.443 103.096 238.234 103.497 238.695 104.224C239.045 104.782 239.215 105.546 239.215 106.562V107.995C239.215 109.01 239.045 109.774 238.696 110.33C238.234 111.059 237.443 111.459 236.467 111.459Z" fill="white"/>
<path d="M254.911 96.5393H258.955L256.969 90.8016L254.911 96.5393ZM255.816 86.2018C255.817 86.2008 255.817 86.1998 255.817 86.1998H258.118L259.08 89.0652L262.382 98.8535H251.447L254.849 89.0017L255.817 86.1998L255.816 86.2018ZM259.985 79.2312C259.985 79.2322 259.985 79.2332 259.986 79.2342L259.985 79.2312ZM265.98 109.006C266.077 109.062 266.47 109.237 267.608 109.237H269.804C270.453 109.237 270.825 109.178 271.021 109.129C271.006 109.058 270.984 108.976 270.953 108.881L260.003 79.2818C259.905 79.2253 259.5 79.0449 258.322 79.0449H255.726C254.501 79.0449 254.119 79.2461 254.04 79.2986L243.08 108.921C243.061 108.987 243.044 109.043 243.03 109.095C243.299 109.16 243.812 109.237 244.743 109.237H246.74C247.642 109.237 247.854 109.052 247.855 109.051L250.127 102.634H263.722L265.98 109.006ZM269.804 111.55H267.608C266.779 111.55 264.259 111.55 263.625 109.789L261.909 104.948H251.94L250.225 109.785C249.933 110.593 249.094 111.55 246.74 111.55H244.743C243.681 111.55 240.447 111.55 240.447 109.378C240.447 109.169 240.49 108.894 240.695 108.23L251.698 78.4819C252.416 76.7316 254.908 76.7316 255.726 76.7316H258.322C259.162 76.7316 261.718 76.7316 262.354 78.4909L273.334 108.173C273.482 108.627 273.552 109.019 273.552 109.378C273.552 110.369 272.901 111.55 269.804 111.55Z" fill="white"/>
<path d="M278.831 103.641H278.832H278.831ZM279.027 103.71C278.946 103.769 278.824 103.867 278.66 104.029C278.24 104.443 277.869 104.931 277.557 105.482C277.203 106.106 277.151 106.456 277.151 106.608C277.151 106.61 277.187 106.896 278 107.405C278.904 108.019 280.157 108.515 281.761 108.906C283.413 109.31 285.388 109.515 287.632 109.515C289.413 109.515 291.095 109.204 292.628 108.594C294.112 108.002 295.296 107.068 296.25 105.738C297.188 104.43 297.664 102.687 297.664 100.56C297.664 98.8587 297.287 97.4643 296.545 96.4137C295.772 95.3205 294.858 94.479 293.83 93.9111C292.687 93.2788 291.177 92.5959 289.344 91.8833C288.009 91.3451 286.991 90.905 286.302 90.571C285.488 90.1765 284.788 89.6513 284.22 89.011C283.567 88.2795 283.236 87.3637 283.236 86.2913C283.236 85.5807 283.492 84.537 284.711 83.6004C285.634 82.8927 287.078 82.5498 289.129 82.5498C290.555 82.5498 291.948 82.756 293.27 83.1634C293.595 83.2744 293.938 83.4051 294.344 83.5677C294.468 83.6182 294.558 83.65 294.624 83.6718C294.685 83.6262 294.781 83.5439 294.911 83.4012C295.262 83.0127 295.568 82.5429 295.818 82.0037C296.121 81.3496 296.167 80.9958 296.167 80.8431C296.164 80.8431 296.091 80.6439 295.582 80.3C294.928 79.8718 293.966 79.5031 292.742 79.2167C291.467 78.9193 290.017 78.7677 288.431 78.7677C286.537 78.7677 284.743 79.074 283.102 79.6786C281.511 80.2643 280.26 81.1504 279.279 82.3833C278.316 83.5905 277.849 85.0801 277.849 86.9375C277.849 89.1784 278.361 90.899 279.369 92.0517C280.442 93.2787 281.958 94.3294 283.876 95.1748L286.134 96.0816C288.113 96.821 289.548 97.492 290.488 98.1224C291.658 98.9093 292.277 100.038 292.277 101.39C292.277 103.438 291.184 104.437 290.267 104.915C289.167 105.488 287.844 105.78 286.335 105.78C285.035 105.78 283.872 105.618 282.88 105.3C281.966 105.008 280.941 104.599 279.833 104.087C279.429 103.884 279.177 103.772 279.027 103.71ZM287.632 111.829C285.173 111.829 282.983 111.598 281.122 111.143C279.186 110.671 277.694 110.066 276.559 109.295C275.305 108.51 274.649 107.599 274.649 106.608C274.649 105.949 274.876 105.23 275.342 104.409C275.759 103.672 276.261 103.011 276.836 102.446C277.316 101.972 278.063 101.343 278.995 101.343C279.388 101.343 279.84 101.456 280.992 102.037C281.963 102.485 282.886 102.854 283.698 103.115C284.428 103.348 285.315 103.466 286.335 103.466C287.408 103.466 288.318 103.276 289.04 102.9C289.383 102.72 289.776 102.387 289.776 101.39C289.776 100.777 289.542 100.346 289.019 99.9946C288.257 99.4852 286.962 98.8855 285.166 98.2145L282.84 97.2799C280.542 96.268 278.733 95.0043 277.425 93.5057C276.047 91.9318 275.348 89.7226 275.348 86.9375C275.348 84.6024 275.992 82.6083 277.265 81.0116C278.513 79.4416 280.166 78.2702 282.176 77.5288C284.116 76.8162 286.22 76.4534 288.431 76.4534C290.224 76.4534 291.88 76.6288 293.356 76.9747C294.88 77.3315 296.121 77.8172 297.042 78.4218C298.125 79.1522 298.668 79.963 298.668 80.8431C298.668 81.4378 298.487 82.1147 298.117 82.9146C297.771 83.6629 297.336 84.3269 296.827 84.8879C296.139 85.6481 295.433 86.0168 294.671 86.0168C294.316 86.0168 293.907 85.9157 293.347 85.6897C292.99 85.546 292.686 85.43 292.435 85.3428C291.413 85.0296 290.287 84.8631 289.129 84.8631C287.263 84.8631 286.561 85.1872 286.308 85.3805C285.797 85.7739 285.737 86.0891 285.737 86.2913C285.737 86.8196 285.872 87.2289 286.151 87.5421C286.513 87.9485 286.942 88.2686 287.464 88.5223C288.1 88.8316 289.065 89.2468 290.328 89.7563C292.254 90.5065 293.868 91.237 295.113 91.9249C296.47 92.6752 297.656 93.7584 298.638 95.147C299.651 96.5802 300.166 98.4008 300.166 100.56C300.166 103.15 299.549 105.322 298.334 107.016C297.121 108.708 295.535 109.953 293.619 110.719C291.771 111.455 289.756 111.829 287.632 111.829Z" fill="white"/>
<path d="M304.628 103.641H304.629H304.628ZM304.825 103.71C304.744 103.769 304.621 103.867 304.457 104.029C304.038 104.443 303.666 104.931 303.353 105.482C303.001 106.106 302.948 106.456 302.948 106.608C302.948 106.61 302.984 106.896 303.797 107.405C304.702 108.019 305.954 108.515 307.557 108.906C309.21 109.31 311.186 109.515 313.429 109.515C315.21 109.515 316.891 109.204 318.425 108.594C319.91 108.002 321.093 107.068 322.046 105.738C322.986 104.43 323.46 102.687 323.46 100.56C323.46 98.8587 323.084 97.4643 322.343 96.4137C321.569 95.3205 320.656 94.479 319.626 93.9111C318.484 93.2788 316.974 92.5959 315.141 91.8833C313.807 91.3451 312.788 90.905 312.098 90.571C311.285 90.1765 310.585 89.6513 310.017 89.011C309.365 88.2795 309.033 87.3637 309.033 86.2913C309.033 85.5807 309.29 84.537 310.509 83.6004C311.432 82.8927 312.876 82.5498 314.927 82.5498C316.352 82.5498 317.746 82.756 319.067 83.1634C319.392 83.2744 319.734 83.4051 320.141 83.5677C320.265 83.6182 320.355 83.65 320.421 83.6718C320.482 83.6262 320.579 83.5439 320.709 83.4012C321.059 83.0127 321.365 82.5429 321.616 82.0037C321.918 81.3496 321.963 80.9958 321.963 80.8431C321.96 80.8431 321.889 80.6439 321.378 80.3C320.724 79.8718 319.764 79.5031 318.539 79.2167C317.265 78.9193 315.813 78.7677 314.228 78.7677C312.335 78.7677 310.541 79.074 308.899 79.6786C307.308 80.2643 306.058 81.1504 305.075 82.3833C304.114 83.5905 303.646 85.0801 303.646 86.9375C303.646 89.1784 304.158 90.899 305.166 92.0517C306.238 93.2787 307.755 94.3294 309.674 95.1748L311.93 96.0816C313.91 96.821 315.345 97.492 316.284 98.1224C317.456 98.9093 318.075 100.038 318.075 101.39C318.075 103.438 316.982 104.437 316.065 104.915C314.964 105.488 313.641 105.78 312.132 105.78C310.831 105.78 309.669 105.618 308.676 105.3C307.763 105.008 306.738 104.599 305.63 104.087C305.226 103.884 304.974 103.772 304.825 103.71ZM313.429 111.829C310.97 111.829 308.78 111.598 306.919 111.143C304.984 110.671 303.491 110.066 302.355 109.295C301.102 108.51 300.446 107.599 300.446 106.608C300.446 105.949 300.672 105.23 301.138 104.409C301.556 103.672 302.059 103.011 302.633 102.446C303.113 101.972 303.859 101.343 304.792 101.343C305.184 101.343 305.637 101.456 306.789 102.037C307.76 102.485 308.683 102.854 309.496 103.115C310.224 103.348 311.111 103.466 312.132 103.466C313.206 103.466 314.116 103.276 314.837 102.9C315.179 102.72 315.573 102.387 315.573 101.39C315.573 100.777 315.339 100.346 314.817 99.9946C314.055 99.4852 312.757 98.8855 310.964 98.2145L308.637 97.2799C306.34 96.268 304.531 95.0043 303.222 93.5057C301.843 91.9318 301.145 89.7226 301.145 86.9375C301.145 84.6024 301.79 82.6083 303.06 81.0116C304.311 79.4416 305.964 78.2702 307.973 77.5288C309.913 76.8162 312.016 76.4534 314.228 76.4534C316.02 76.4534 317.678 76.6288 319.152 76.9747C320.677 77.3315 321.917 77.8172 322.839 78.4218C323.923 79.1522 324.466 79.963 324.466 80.8431C324.466 81.4378 324.285 82.1147 323.914 82.9146C323.567 83.6629 323.134 84.3269 322.625 84.8879C321.936 85.6481 321.23 86.0168 320.468 86.0168C320.113 86.0168 319.704 85.9157 319.144 85.6897C318.787 85.546 318.483 85.43 318.232 85.3428C317.21 85.0296 316.083 84.8631 314.927 84.8631C313.06 84.8631 312.358 85.1872 312.106 85.3805C311.594 85.7739 311.535 86.0891 311.535 86.2913C311.535 86.8196 311.67 87.2289 311.948 87.5421C312.309 87.9485 312.739 88.2686 313.261 88.5223C313.897 88.8316 314.861 89.2468 316.126 89.7563C318.051 90.5065 319.666 91.237 320.91 91.9249C322.267 92.6752 323.453 93.7584 324.434 95.147C325.449 96.5802 325.962 98.4008 325.962 100.56C325.962 103.15 325.346 105.322 324.131 107.016C322.919 108.708 321.333 109.953 319.415 110.719C317.568 111.455 315.554 111.829 313.429 111.829Z" fill="white"/>
<path d="M337.942 90.3526H341.433C342.115 90.3526 342.679 90.1049 343.21 89.5716C343.76 89.0186 344.027 88.3525 344.027 87.5378C344.027 86.7836 343.8 86.2405 343.314 85.8301C342.798 85.397 342.068 85.1859 341.085 85.1859H337.942V90.3526ZM341.433 92.6659H335.441V82.8726H341.085C342.697 82.8726 344.014 83.2919 344.997 84.1204C346.013 84.9768 346.529 86.1265 346.529 87.5378C346.529 88.9413 346.031 90.1525 345.051 91.1376C344.041 92.1516 342.825 92.6659 341.433 92.6659ZM330.258 108.964H330.266H330.258ZM348.784 108.987C348.807 108.987 349.167 109.237 350.52 109.237H352.567C353.413 109.237 353.909 109.17 354.186 109.108C354.174 109.077 354.16 109.043 354.146 109.008L349.759 98.8654C349.37 97.9823 348.87 97.1617 348.275 96.4312C347.596 95.6026 347.117 95.3489 346.891 95.2726C346.891 95.2726 346.29 95.0219 346.149 94.8583C345.856 94.5174 345.875 93.6779 346.135 93.3131C346.261 93.1367 346.89 92.9177 346.89 92.9177C348.475 92.3755 349.687 91.5717 350.598 90.4627C351.485 89.3823 351.915 88.1385 351.915 86.6607C351.915 83.4306 350.756 79.1361 340.735 79.1361H331C330.502 79.1361 330.362 79.2362 330.361 79.2372C330.361 79.2372 330.254 79.366 330.254 79.8269V108.916C330.254 108.946 330.257 108.96 330.258 108.963C330.267 108.963 330.591 109.237 331.999 109.237H333.696C335.141 109.237 335.445 108.948 335.447 108.946L335.441 96.4937H338.639C340.413 96.4937 341.7 96.7642 342.571 97.3232C343.398 97.8525 344.125 98.693 344.792 99.8912L344.84 99.9854L348.783 108.989C348.782 108.987 348.783 108.987 348.784 108.987ZM352.567 111.55H350.52C349.711 111.55 347.249 111.55 346.475 109.88L342.543 100.905C341.97 99.8902 341.469 99.4313 341.145 99.2242C340.902 99.0686 340.253 98.8069 338.639 98.8069H337.942V108.916C337.942 109.9 337.39 111.55 333.696 111.55H331.999C328.305 111.55 327.753 109.9 327.753 108.916V79.8269C327.753 78.8655 328.035 78.1162 328.594 77.6009C329.151 77.0845 329.961 76.8228 331 76.8228H340.735C352.043 76.8228 354.417 82.1729 354.417 86.6607C354.417 88.634 353.802 90.3843 352.59 91.8621C351.785 92.8423 350.782 93.656 349.594 94.2923C349.819 94.5134 350.044 94.7602 350.27 95.0357C350.998 95.9287 351.606 96.9258 352.078 97.9992L356.475 108.163C356.71 108.733 356.813 109.131 356.813 109.47C356.813 109.928 356.61 110.764 355.244 111.227C354.596 111.445 353.722 111.55 352.567 111.55Z" fill="white"/>
<path d="M373.783 84.8631C371.526 84.8631 369.874 85.5738 368.733 87.0376C367.514 88.5987 366.896 90.9883 366.896 94.141C366.896 97.2968 367.515 99.6953 368.735 101.271C369.877 102.749 371.527 103.466 373.783 103.466C376.035 103.466 377.676 102.75 378.803 101.277V101.276C380.008 99.6993 380.62 97.2997 380.62 94.141C380.62 90.9863 380.009 88.5947 378.805 87.0317C377.68 85.5718 376.037 84.8631 373.783 84.8631ZM373.783 105.78C370.705 105.78 368.323 104.715 366.7 102.618C365.171 100.642 364.396 97.7903 364.396 94.141C364.396 90.4927 365.172 87.6472 366.704 85.6838C368.327 83.6034 370.708 82.5498 373.783 82.5498C376.86 82.5498 379.235 83.6054 380.842 85.6897C382.355 87.6521 383.121 90.4947 383.121 94.141C383.121 97.7874 382.355 100.637 380.845 102.612C379.239 104.714 376.862 105.78 373.783 105.78ZM373.783 78.7677C368.952 78.7677 365.369 80.0383 362.832 82.6539C360.294 85.2705 359.008 89.1339 359.008 94.141C359.008 99.1482 360.294 103.013 362.832 105.628C365.369 108.244 368.951 109.515 373.783 109.515C378.613 109.515 382.187 108.244 384.707 105.63C387.229 103.015 388.507 99.1502 388.507 94.141C388.507 89.1329 387.229 85.2675 384.707 82.6519C382.186 80.0383 378.612 78.7677 373.783 78.7677ZM373.783 111.829C368.278 111.829 363.967 110.262 360.971 107.172C358.009 104.121 356.507 99.7369 356.507 94.141C356.507 88.5461 358.009 84.1624 360.971 81.1097C363.968 78.0204 368.279 76.4534 373.783 76.4534C379.288 76.4534 383.592 78.0214 386.573 81.1117C389.517 84.1654 391.009 88.5481 391.009 94.141C391.009 99.7349 389.517 104.118 386.573 107.17C383.593 110.262 379.289 111.829 373.783 111.829Z" fill="white"/>
<path d="M410.278 84.8631C408.02 84.8631 406.369 85.5738 405.227 87.0376C404.01 88.5987 403.392 90.9883 403.392 94.141C403.392 97.2968 404.01 99.6953 405.23 101.271C406.371 102.749 408.022 103.466 410.278 103.466C412.529 103.466 414.171 102.75 415.297 101.277V101.276C416.503 99.6993 417.114 97.2997 417.114 94.141C417.114 90.9863 416.504 88.5947 415.3 87.0317C414.174 85.5718 412.532 84.8631 410.278 84.8631ZM410.278 105.78C407.199 105.78 404.817 104.715 403.195 102.618C401.665 100.642 400.89 97.7903 400.89 94.141C400.89 90.4927 401.666 87.6472 403.198 85.6838C404.821 83.6034 407.202 82.5498 410.278 82.5498C413.354 82.5498 415.73 83.6054 417.337 85.6897C418.849 87.6521 419.615 90.4947 419.615 94.141C419.615 97.7874 418.85 100.637 417.34 102.612C415.734 104.714 413.357 105.78 410.278 105.78ZM410.278 78.7677C405.448 78.7677 401.865 80.0383 399.326 82.6539C396.79 85.2705 395.503 89.1339 395.503 94.141C395.503 99.1482 396.79 103.013 399.326 105.628C401.864 108.244 405.447 109.515 410.278 109.515C415.108 109.515 418.681 108.244 421.202 105.63C423.724 103.015 425.003 99.1502 425.003 94.141C425.003 89.1329 423.724 85.2675 421.202 82.6519C418.681 80.0383 415.107 78.7677 410.278 78.7677ZM410.278 111.829C404.772 111.829 400.462 110.262 397.465 107.172C394.503 104.121 393.002 99.7369 393.002 94.141C393.002 88.5461 394.503 84.1624 397.465 81.1097C400.463 78.0204 404.773 76.4534 410.278 76.4534C415.783 76.4534 420.087 78.0214 423.068 81.1117C426.011 84.1654 427.503 88.5481 427.503 94.141C427.503 99.7349 426.011 104.118 423.068 107.17C420.088 110.262 415.784 111.829 410.278 111.829Z" fill="white"/>
<path d="M458.853 88.414L460.73 85.2295C460.801 85.1086 460.988 85.1591 460.987 85.2999L460.951 108.86C460.951 108.906 460.972 108.95 461.012 108.977C461.158 109.07 461.596 109.237 462.695 109.237H464.142C465.231 109.237 465.671 109.073 465.824 108.991C465.869 108.967 465.894 108.921 465.894 108.87L465.888 79.4225C465.888 79.375 465.865 79.3323 465.826 79.3056C465.68 79.2124 465.241 79.0449 464.142 79.0449H461.546C460.445 79.0449 459.756 79.2629 459.495 79.6961L450.621 94.1268L449.688 95.7602C449.637 95.8504 449.508 95.8534 449.452 95.7662L447.938 93.3885L439.638 79.701C439.374 79.263 438.684 79.0449 437.583 79.0449H434.938C433.849 79.0449 433.408 79.2084 433.257 79.2907C433.211 79.3155 433.186 79.3611 433.186 79.4126L433.193 108.86C433.193 108.906 433.214 108.95 433.255 108.977C433.401 109.07 433.839 109.237 434.938 109.237H436.386C437.474 109.237 437.915 109.073 438.067 108.991C438.112 108.967 438.137 108.921 438.137 108.87L438.131 88.8967L438.144 85.5596C438.145 85.3534 438.419 85.2811 438.521 85.4595L440.686 89.2128C440.979 89.7233 441.333 90.3071 441.756 90.9662L447.868 101.077C448.028 101.261 448.277 101.433 448.816 101.433H450.265C450.802 101.433 451.052 101.261 451.213 101.076L457.31 90.9899C457.745 90.308 458.103 89.7233 458.394 89.2128L458.853 88.414ZM464.142 111.55H462.695C459.001 111.55 458.449 109.9 458.449 108.916V94.3419C458.449 94.2021 458.265 94.1506 458.192 94.2706L453.268 102.4C452.565 103.282 451.526 103.747 450.265 103.747H448.816C447.553 103.747 446.514 103.282 445.812 102.399L445.728 102.278L440.888 94.2725C440.816 94.1526 440.632 94.2031 440.632 94.3439V108.916C440.632 109.9 440.079 111.55 436.386 111.55H434.938C431.244 111.55 430.692 109.9 430.692 108.916V79.365C430.692 78.3818 431.244 76.7316 434.938 76.7316H437.583C439.663 76.7316 441.087 77.3511 441.822 78.5721L449.378 91.0355C449.433 91.1237 449.561 91.1247 449.614 91.0365L457.316 78.5602C458.043 77.3511 459.468 76.7316 461.546 76.7316H464.142C467.837 76.7316 468.388 78.3818 468.388 79.365V108.916C468.388 109.9 467.837 111.55 464.142 111.55Z" fill="white"/>
<path d="M489.691 18.7486C487.364 18.7486 485.543 20.5713 485.543 22.8995V58.9932C485.543 61.3204 487.364 63.144 489.691 63.144H515.645C517.64 63.144 519.264 61.5474 519.264 59.5879C519.264 57.5888 517.64 55.9633 515.645 55.9633H494.711H493.774V55.0257V45.3078V44.3692H494.711H512.343C514.338 44.3692 515.962 42.7745 515.962 40.813C515.962 38.8159 514.338 37.1905 512.343 37.1905H494.711H493.774V36.2529V26.8649V25.9264H494.711H515.315C517.311 25.9264 518.934 24.3306 518.934 22.3702C518.934 20.3731 517.311 18.7486 515.315 18.7486H489.691Z" fill="white"/>
<path d="M436.024 63.5405C434.204 63.5405 432.848 62.5514 431.994 60.5989L428.651 52.766H407.071L403.593 60.9379C402.877 62.5901 401.482 63.5405 399.767 63.5405C397.662 63.5405 396.015 61.8616 396.015 59.7187C396.015 59.13 396.271 58.4818 396.525 57.9248L412.642 21.495C413.35 19.9112 414.81 18.0202 417.729 18.0202H418.324C420.625 18.0202 422.314 19.1907 423.345 21.498L439.458 57.9179C439.769 58.6027 439.907 59.1142 439.907 59.5869C439.907 61.8041 438.2 63.5405 436.024 63.5405ZM410.044 45.6517H425.678L417.861 27.0186L410.044 45.6517Z" fill="white"/>
<path d="M188.596 18.3522C186.27 18.3522 184.448 20.1749 184.448 22.502V58.9922C184.448 61.3204 186.27 63.144 188.596 63.144H212.503C214.569 63.144 216.187 61.5225 216.187 59.4551C216.187 57.3866 214.569 55.7651 212.503 55.7651H193.681H192.742V54.8275V22.502C192.742 20.1749 190.92 18.3522 188.596 18.3522Z" fill="white"/>
<path d="M332.613 17.9538C319.547 17.9538 309.312 28.0524 309.312 40.9449V41.0767C309.312 54.5352 318.92 63.9351 332.678 63.9351C338.242 63.9351 343.521 62.4255 348.367 59.4472C350.528 58.1607 351.487 56.4114 351.487 53.7691V42.5317C351.487 40.2036 349.665 38.3799 347.338 38.3799H335.716C333.794 38.3799 332.228 39.9449 332.228 41.8696C332.228 43.7894 333.76 45.294 335.716 45.294H342.584H343.522V46.2326V52.8443V53.325L343.132 53.6075C340.444 55.5382 336.944 56.5581 333.009 56.5581C324.351 56.5581 318.069 49.9919 318.069 40.9449V40.8121C318.069 32.3489 324.445 25.4626 332.281 25.4626C336.465 25.4626 339.649 26.4646 342.93 28.8106C343.562 29.2715 344.305 29.6927 345.49 29.6927C347.741 29.6927 349.572 27.8611 349.572 25.6083C349.572 23.74 348.362 22.6488 347.841 22.2662C343.521 19.2482 338.961 17.9538 332.613 17.9538Z" fill="white"/>
<path d="M258.528 63.5405C256.709 63.5405 255.355 62.5514 254.5 60.5989L251.156 52.766H229.576L226.098 60.9379C225.382 62.5901 223.986 63.5405 222.271 63.5405C220.167 63.5405 218.52 61.8616 218.52 59.7187C218.52 59.129 218.778 58.4818 219.03 57.9258L235.148 21.495C235.856 19.9112 237.314 18.0202 240.236 18.0202H240.829C243.129 18.0202 244.819 19.1917 245.851 21.498L261.963 57.9179C262.275 58.6047 262.413 59.1161 262.413 59.5869C262.413 61.8041 260.706 63.5405 258.528 63.5405ZM232.55 45.6517H248.184L240.368 27.0186L232.55 45.6517Z" fill="white"/>
<path d="M462.597 17.9538C449.531 17.9538 439.297 28.0524 439.297 40.9449V41.0767C439.297 54.5352 448.906 63.9351 462.662 63.9351C468.226 63.9351 473.504 62.4255 478.352 59.4472C480.513 58.1607 481.472 56.4114 481.472 53.7691V42.5317C481.472 40.2036 479.649 38.3799 477.324 38.3799H465.7C463.779 38.3799 462.213 39.9449 462.213 41.8696C462.213 43.7894 463.746 45.294 465.7 45.294H472.57H473.507V46.2326V52.8443V53.325L473.116 53.6075C470.43 55.5382 466.928 56.5581 462.993 56.5581C454.338 56.5581 448.054 49.9919 448.054 40.9449V40.8121C448.054 32.3489 454.43 25.4626 462.266 25.4626C466.448 25.4626 469.634 26.4646 472.916 28.8106C473.549 29.2715 474.289 29.6927 475.476 29.6927C477.726 29.6927 479.557 27.8611 479.557 25.6083C479.557 23.74 478.346 22.6488 477.826 22.2662C473.507 19.2482 468.947 17.9538 462.597 17.9538Z" fill="white"/>
<path d="M360.666 18.3503C358.34 18.3503 356.518 20.1739 356.518 22.5011V44.2493C356.518 56.901 363.292 63.8696 375.591 63.8696C388.06 63.8696 394.928 56.785 394.928 43.9183V22.5011C394.928 20.1739 393.105 18.3503 390.78 18.3503C388.454 18.3503 386.633 20.1739 386.633 22.5011V44.3157C386.633 51.9692 382.656 56.3589 375.721 56.3589C368.788 56.3589 364.812 51.8493 364.812 43.9857V22.5011C364.812 20.1739 362.992 18.3503 360.666 18.3503Z" fill="white"/>
<path d="M270 18.484C267.675 18.484 265.853 20.3077 265.853 22.6359V59.4541C265.853 61.7079 267.683 63.5405 269.934 63.5405C272.185 63.5405 274.015 61.7079 274.015 59.4541V34.6661V31.887L275.699 34.0962L296.04 60.8021C297.286 62.4077 298.485 63.4067 300.578 63.4067H300.907C303.232 63.4067 305.054 61.583 305.054 59.2569V22.4357C305.054 20.1838 303.224 18.3522 300.974 18.3522C298.723 18.3522 296.891 20.1838 296.891 22.4357V46.2989V49.081L295.208 46.8678L275.594 21.0877C274.346 19.4831 273.149 18.484 271.056 18.484H270Z" fill="white"/>
<path d="M107.766 76.145H137.672C140.164 76.145 142.116 74.2262 142.116 71.7771C142.116 69.3241 140.123 67.329 137.672 67.329H118.469H116.035L117.962 65.8413L126.933 58.9093C136.778 51.2807 141.092 47.0179 141.092 38.2187V38.0621C141.092 28.2301 133.973 21.878 122.957 21.878C115.539 21.878 110.361 24.217 105.64 29.7019C104.893 30.587 104.424 31.8309 104.424 32.9409C104.424 35.5674 106.481 37.625 109.104 37.625C111.099 37.625 112.271 36.507 112.582 36.163C115.412 33.1134 118.121 31.0865 122.167 31.0865C127.167 31.0865 130.396 34.2274 130.396 39.0859C130.396 44.0901 127.917 47.2448 120.409 53.3769L104.908 65.8026C103.02 67.329 102.064 69.1526 102.064 71.2251C102.064 74.2143 104.302 76.145 107.766 76.145Z" fill="white"/>
<path d="M63.3348 38.2902C65.748 38.2902 67.7115 36.3585 67.7115 33.9848C67.7115 31.5684 65.748 29.603 63.3348 29.603H34.2794C31.4901 29.603 29.3047 31.7914 29.3047 34.5844V75.5079C29.3047 78.3019 31.4901 80.4883 34.2794 80.4883H64.8895C67.3036 80.4883 69.2671 78.5566 69.2671 76.1828C69.2671 73.7655 67.3036 71.8011 64.8895 71.8011H39.1809V59.2009H57.0114C59.4255 59.2009 61.3881 57.2702 61.3881 54.8955C61.3881 52.4801 59.4255 50.5147 57.0114 50.5147H39.1809V38.2902H63.3348Z" fill="white"/>
<path d="M84.3837 88.4216H66.6938L58.1494 98.7649L49.6079 88.4216H28.1949C24.2965 88.4216 20.1752 84.348 20.1752 80.4975V29.5895C20.1752 25.6527 24.2965 21.489 28.1949 21.489H78.0048C80.012 18.4661 82.3162 15.6572 84.8778 13.1081H28.0533C18.9239 13.1081 11.8018 19.8804 11.8018 29.2951V80.4648C11.8018 89.7348 18.9084 96.8005 28.2375 96.8005H44.1539L57.6058 112.24L71.0576 96.8005H95.0234C91.0963 94.4526 87.5315 91.6269 84.3837 88.4216Z" fill="white"/>
<path d="M130.854 88.6327L122.485 98.7649L114.118 88.6327C96.8725 84.796 83.9356 69.3731 83.9356 50.9719C83.9356 29.6955 101.228 12.3855 122.486 12.3855C143.744 12.3855 161.037 29.6955 161.037 50.9719C161.037 69.3731 148.099 84.796 130.854 88.6327ZM122.486 3.93817C96.5338 3.93817 75.4961 24.9956 75.4961 50.9719C75.4961 71.9273 89.1905 89.6734 108.107 95.7539L122.486 112.24L136.889 95.746C155.793 89.6575 169.475 71.9174 169.475 50.9719C169.475 24.9956 148.437 3.93817 122.486 3.93817Z" fill="white"/>
</svg>
