<svg width="395" height="261" viewBox="0 0 395 261" fill="none" xmlns="http://www.w3.org/2000/svg">
<path d="M382.572 236.126C382.572 236.126 398.653 204.297 393.607 199.25C388.628 194.271 381.765 209.008 377.526 204.768C373.287 200.529 387.282 161.433 377.526 156.924C367.77 152.415 359.628 178.794 356.466 180.341C353.304 181.889 346.71 162.24 337.627 169.171C328.543 176.102 342.74 207.46 337.627 206.922C332.513 206.383 324.305 173.478 310.646 179.265C296.987 185.052 305.667 236.126 305.667 236.126H382.572Z" fill="url(#paint0_linear)"/>
<path d="M375.978 156.924C375.978 156.924 364.136 204.499 347.046 236.126" stroke="white" stroke-width="0.8201" stroke-miterlimit="10"/>
<path d="M381.025 168.094C381.025 168.094 376.248 180.812 366.693 188.282" stroke="white" stroke-width="0.8201" stroke-miterlimit="10"/>
<path d="M339.712 168.094C339.712 168.094 342.269 184.648 359.157 209.344" stroke="white" stroke-width="0.8201" stroke-miterlimit="10"/>
<path d="M392.396 198.443C392.396 198.443 379.41 223.341 351.42 227.446" stroke="white" stroke-width="0.8201" stroke-miterlimit="10"/>
<path d="M311.79 178.861C311.79 178.861 316.096 216.477 328.947 236.463" stroke="white" stroke-width="0.8201" stroke-miterlimit="10"/>
<path d="M323.228 184.514C323.228 184.514 323.161 201.673 318.787 212.911" stroke="white" stroke-width="0.8201" stroke-miterlimit="10"/>
<path d="M76.2293 236.665C76.2293 236.665 94.5978 213.113 93.8577 199.654C93.1176 186.196 78.046 188.08 78.4497 175.429C78.8534 162.711 90.0225 149.657 79.9972 140.774C69.972 131.892 60.7541 144.61 53.4202 133.103C46.0862 121.529 29.3326 95.9578 18.9709 99.457C9.21474 102.754 10.5604 117.222 17.6252 131.555C24.219 145.081 22.5369 151.608 14.1265 148.445C3.83204 144.61 -4.84756 159.481 3.09192 170.046C10.8296 180.341 28.0542 185.052 26.103 194.271C24.1517 203.49 13.79 200.058 16.0777 211.565C18.3653 223.139 42.1165 236.665 42.1165 236.665H76.2293Z" fill="url(#paint1_linear)"/>
<path d="M18.9708 99.3896C18.9708 99.3896 62.0997 176.102 62.0997 236.665" stroke="white" stroke-width="0.8201" stroke-miterlimit="10"/>
<path d="M12.5117 116.347C12.5117 116.347 18.7018 120.115 34.3789 130.68" stroke="white" stroke-width="0.8201" stroke-miterlimit="10"/>
<path d="M43.1257 117.828C43.1257 117.828 44.8751 132.43 42.3856 149.926" stroke="white" stroke-width="0.8201" stroke-miterlimit="10"/>
<path d="M4.84131 149.993C4.84131 149.993 23.4789 163.182 49.6523 170.248" stroke="white" stroke-width="0.8201" stroke-miterlimit="10"/>
<path d="M74.1435 137.409C74.1435 137.409 66.5405 176.775 56.3806 193.8" stroke="white" stroke-width="0.8201" stroke-miterlimit="10"/>
<path d="M26.103 194.203C26.103 194.203 41.04 208.469 60.5523 215.4" stroke="white" stroke-width="0.8201" stroke-miterlimit="10"/>
<path d="M89.2151 190.031C89.2151 190.031 78.9207 212.44 61.696 226.84" stroke="white" stroke-width="0.8201" stroke-miterlimit="10"/>
<path d="M222.773 172.939H174.935C174.935 207.662 164.371 225.292 158.383 232.56C157.037 234.175 158.181 236.665 160.334 236.665H237.374C239.527 236.665 240.671 234.175 239.325 232.56C233.337 225.292 222.773 207.662 222.773 172.939Z" fill="#2878A6"/>
<path d="M222.773 172.939H174.935C174.935 181.082 174.329 188.282 173.387 194.607L226.609 205.778C224.321 197.164 222.773 186.33 222.773 172.939Z" fill="#165D85"/>
<path d="M343.211 0H54.4967V186.667H343.211V0Z" fill="#758AF6"/>
<path d="M331.975 9.95911H65.733V169.104H331.975V9.95911Z" fill="white"/>
<path d="M317.509 38.2889H256.886V139.496H317.509V38.2889Z" fill="#FFE28E"/>
<path d="M311.319 43.7395H263.144V61.3026H311.319V43.7395Z" stroke="white" stroke-width="0.5372" stroke-miterlimit="10"/>
<path d="M263.144 47.306H311.319" stroke="white" stroke-width="0.5372" stroke-miterlimit="10"/>
<path d="M263.144 79.1349H311.319" stroke="white" stroke-width="0.5372" stroke-miterlimit="10"/>
<path d="M263.144 85.1912H311.319" stroke="white" stroke-width="0.5372" stroke-miterlimit="10"/>
<path d="M263.144 91.1802H311.319" stroke="white" stroke-width="0.5372" stroke-miterlimit="10"/>
<path d="M263.144 97.1691H311.319" stroke="white" stroke-width="0.5372" stroke-miterlimit="10"/>
<path d="M263.144 103.158H311.319" stroke="white" stroke-width="0.5372" stroke-miterlimit="10"/>
<path d="M263.144 109.214H311.319" stroke="white" stroke-width="0.5372" stroke-miterlimit="10"/>
<path d="M263.144 115.203H311.319" stroke="white" stroke-width="0.5372" stroke-miterlimit="10"/>
<path d="M263.144 121.192H311.319" stroke="white" stroke-width="0.5372" stroke-miterlimit="10"/>
<path d="M263.144 127.248H311.319" stroke="white" stroke-width="0.5372" stroke-miterlimit="10"/>
<path d="M263.144 133.237H311.319" stroke="white" stroke-width="0.5372" stroke-miterlimit="10"/>
<path d="M128.24 36.674H74.8164V158.001H128.24V36.674Z" fill="#BBC8FA"/>
<path d="M122.184 42.3937H80.8047V83.778H122.184V42.3937Z" stroke="white" stroke-width="0.5372" stroke-miterlimit="10"/>
<path d="M80.8047 42.3937L122.184 83.778" stroke="white" stroke-width="0.5372" stroke-miterlimit="10"/>
<path d="M122.184 42.3937L80.8047 83.778" stroke="white" stroke-width="0.5372" stroke-miterlimit="10"/>
<path d="M237.441 126.576H140.149C139.543 126.576 139.072 126.105 139.072 125.499C139.072 124.893 139.543 124.422 140.149 124.422H237.441C238.047 124.422 238.518 124.893 238.518 125.499C238.518 126.105 237.979 126.576 237.441 126.576Z" fill="#BBC8FA"/>
<path d="M237.441 133.036H140.149C139.543 133.036 139.072 132.564 139.072 131.959C139.072 131.353 139.543 130.882 140.149 130.882H237.441C238.047 130.882 238.518 131.353 238.518 131.959C238.518 132.564 237.979 133.036 237.441 133.036Z" fill="#BBC8FA"/>
<path d="M237.441 139.496H140.149C139.543 139.496 139.072 139.024 139.072 138.419C139.072 137.813 139.543 137.342 140.149 137.342H237.441C238.047 137.342 238.518 137.813 238.518 138.419C238.518 139.024 237.979 139.496 237.441 139.496Z" fill="#BBC8FA"/>
<path opacity="0.46" d="M237.912 117.962H143.715C142.302 117.962 141.158 116.818 141.158 115.405V41.7882C141.158 40.375 142.302 39.2311 143.715 39.2311H237.912C239.325 39.2311 240.469 40.375 240.469 41.7882V115.472C240.469 116.818 239.325 117.962 237.912 117.962Z" fill="url(#paint2_linear)"/>
<path d="M235.826 115.405H141.629C140.216 115.405 139.072 114.261 139.072 112.848V39.231C139.072 37.8179 140.216 36.674 141.629 36.674H235.826C237.239 36.674 238.383 37.8179 238.383 39.231V112.915C238.383 114.261 237.239 115.405 235.826 115.405Z" fill="#5A9681"/>
<path d="M139.14 96.6981V109.484C139.14 112.781 141.831 115.405 145.061 115.405H232.395C235.692 115.405 238.316 112.714 238.316 109.484V96.6981H139.14Z" fill="#BBC8FA"/>
<path d="M222.504 105.042H155.019C153.875 105.042 152.933 104.1 152.933 102.956C152.933 101.812 153.875 100.87 155.019 100.87H222.504C223.648 100.87 224.59 101.812 224.59 102.956C224.59 104.1 223.648 105.042 222.504 105.042Z" stroke="#2878A6" stroke-width="0.9148" stroke-miterlimit="10"/>
<path d="M152.933 108.138H224.59" stroke="#2878A6" stroke-width="0.9148" stroke-miterlimit="10"/>
<path d="M152.933 111.166H224.59" stroke="#2878A6" stroke-width="0.9148" stroke-miterlimit="10"/>
<path d="M331.975 9.95911H65.733V20.5912H331.975V9.95911Z" fill="#BBC8FA"/>
<path d="M76.7676 15.2752C76.7676 16.2846 75.9602 17.0921 74.9509 17.0921C73.9417 17.0921 73.1343 16.2846 73.1343 15.2752C73.1343 14.2659 73.9417 13.4584 74.9509 13.4584C75.9602 13.4584 76.7676 14.3332 76.7676 15.2752Z" stroke="#165D85" stroke-width="1.3935" stroke-miterlimit="10" stroke-linecap="round" stroke-linejoin="round"/>
<path d="M87.1966 15.2752C87.1966 16.2846 86.3892 17.0921 85.3799 17.0921C84.3706 17.0921 83.5632 16.2846 83.5632 15.2752C83.5632 14.2659 84.3706 13.4584 85.3799 13.4584C86.3892 13.4584 87.1966 14.3332 87.1966 15.2752Z" stroke="#165D85" stroke-width="1.3935" stroke-miterlimit="10" stroke-linecap="round" stroke-linejoin="round"/>
<path d="M97.6256 15.2752C97.6256 16.2846 96.8182 17.0921 95.809 17.0921C94.7997 17.0921 93.9923 16.2846 93.9923 15.2752C93.9923 14.2659 94.7997 13.4584 95.809 13.4584C96.8182 13.4584 97.6256 14.3332 97.6256 15.2752Z" stroke="#165D85" stroke-width="1.3935" stroke-miterlimit="10" stroke-linecap="round" stroke-linejoin="round"/>
<path d="M231.453 212.103C231.453 212.103 229.3 228.926 228.627 233.636C227.685 240.298 218.4 238.414 218.131 240.5C217.862 242.721 231.924 243.528 233.202 242.452C234.481 241.442 232.597 240.904 234.01 235.184C235.423 229.464 239.931 211.699 239.931 211.699L231.453 212.103Z" fill="#FB98AB"/>
<path d="M275.322 211.901C275.322 211.901 281.983 228.388 283.531 233.569C285.482 240.029 277.273 240.097 277.408 242.183C277.475 243.192 290.057 242.317 291.134 241.106C292.21 239.895 290.461 237.607 289.048 234.175C286.491 228.119 283.531 210.017 283.531 210.017L275.322 211.901Z" fill="#FB98AB"/>
<path d="M264.826 124.961C264.826 124.961 272.361 150.531 273.707 178.256C273.707 178.256 283.934 198.443 286.222 212.911H273.707C273.707 212.911 258.703 183.841 253.522 148.042C253.522 148.042 250.225 164.797 246.794 179.063C246.794 179.063 247.937 200.462 245.65 212.911H231.049C231.049 212.911 231.789 181.755 235.086 162.644C238.383 143.6 240.873 124.893 240.873 124.893H264.826V124.961Z" fill="#165D85"/>
<path opacity="0.46" d="M269.065 142.793C266.911 132.026 264.826 124.961 264.826 124.961H240.738C240.738 124.961 240.267 128.258 239.527 133.507C244.977 137.006 256.819 143.398 269.065 142.793Z" fill="url(#paint3_linear)"/>
<path d="M233.471 90.1709L222.571 97.7075C222.571 97.7075 212.075 87.2773 211.066 85.3932C210.057 83.509 209.182 81.0192 207.231 79.5388C205.347 78.0584 201.243 76.8471 201.041 77.3855C200.906 77.9238 203.867 78.3949 204.741 79.2024C204.741 79.2024 202.992 82.2305 204.472 84.3838C205.952 86.5371 208.644 87.21 208.644 87.21C208.644 87.21 216.381 104.773 221.63 105.311C224.388 105.581 237.576 95.8907 237.576 95.8907L233.471 90.1709Z" fill="#FB98AB"/>
<path d="M247.197 58.4091C243.228 59.755 244.775 63.3887 243.968 65.3402C243.228 67.2916 240.671 69.1758 241.545 72.6077C242.353 76.0395 243.295 77.7891 242.353 78.9331C241.478 80.0097 240.671 82.0285 244.708 82.0285C248.745 82.0285 250.158 82.0285 253.455 82.0285C256.752 82.0285 257.626 79.2695 256.213 75.2993C254.8 71.3291 254.666 65.0037 254.935 62.2448C255.204 59.4185 249.889 57.5344 247.197 58.4091Z" fill="#165D85"/>
<path d="M240.132 97.9766C240.334 100.197 241.344 101.947 241.613 106.253C241.882 110.56 239.729 127.652 239.729 127.652C251.234 132.497 268.055 127.652 268.055 127.652C263.547 118.231 264.22 105.513 264.22 105.513C264.22 105.513 270.814 103.427 271.823 102.62C272.765 101.812 269.535 94.0064 268.19 90.7091C266.844 87.3445 263.615 82.6341 260.183 82.0285C256.752 81.4229 250.831 81.0864 250.831 81.0864C247.197 81.0864 241.882 83.3743 238.518 85.9314C235.086 88.4212 232.933 90.5072 232.933 90.5072L236.499 99.0533C236.768 99.7262 237.576 99.9281 238.181 99.5243L240.132 97.9766Z" fill="#FA8403"/>
<path d="M252.513 61.7738C255.473 61.7738 259.241 63.3888 259.847 69.445C260.452 75.5686 258.434 79.0678 258.568 82.2305C258.568 82.2305 251.503 84.9221 251.503 82.2305C251.503 79.5388 251.84 78.2602 250.965 77.7219C250.158 77.1836 246.726 77.5873 246.255 75.7705C245.784 73.9536 246.457 71.733 245.852 70.6563C245.179 69.5796 244.371 69.3105 244.371 69.3105C244.371 69.3105 245.717 69.2432 246.659 66.5515C247.601 63.9944 249.485 61.7738 252.513 61.7738Z" fill="#FB98AB"/>
<path d="M248.072 77.1835C249.149 77.4526 250.427 77.4526 250.898 77.7218C251.705 78.2601 251.436 79.5387 251.436 82.2303C251.436 84.922 258.501 82.2303 258.501 82.2303C258.366 79.4041 259.914 76.3087 259.847 71.3291C259.712 71.3964 259.578 71.4637 259.443 71.6656C257.424 74.4918 249.889 77.3853 248.072 77.1835Z" fill="url(#paint4_linear)"/>
<path d="M247.197 58.4092C247.197 58.4092 245.852 61.37 249.754 62.4467C253.657 63.5906 250.225 69.0413 252.445 72.5404C254.666 76.0396 255.944 77.6546 255.204 81.5575C254.464 85.3931 255.204 88.4885 258.299 88.4885C261.394 88.4885 263.076 88.4885 265.297 88.4885C267.517 88.4885 270.007 86.1333 267.382 81.4902C264.826 76.8471 262.538 76.6452 263.211 71.4638C263.884 66.4169 261.192 54.91 247.197 58.4092Z" fill="#165D85"/>
<path d="M276.129 139.697H251.974C251.705 139.697 251.503 139.496 251.503 139.226V120.789C251.503 120.519 251.705 120.318 251.974 120.318H276.129C276.398 120.318 276.6 120.519 276.6 120.789V139.226C276.6 139.496 276.398 139.697 276.129 139.697Z" fill="url(#paint5_linear)"/>
<path d="M266.979 130.007C266.979 131.622 265.7 132.901 264.086 132.901C262.471 132.901 261.192 131.622 261.192 130.007C261.192 128.392 262.471 127.114 264.086 127.114C265.7 127.114 266.979 128.392 266.979 130.007Z" fill="#2878A6"/>
<path d="M291.201 241.106C292.008 240.164 291.268 238.683 290.259 236.597C287.769 237.472 285.213 237.607 283.261 237.539C281.647 240.164 277.34 240.635 277.475 242.182C277.542 243.192 290.057 242.384 291.201 241.106Z" fill="#165D85"/>
<path d="M233.471 238.078C229.367 238.549 227.147 238.212 225.936 237.674C222.841 239.491 218.265 239.087 218.064 240.5C217.794 242.721 231.857 243.528 233.135 242.452C234.212 241.644 233.202 241.173 233.471 238.078Z" fill="#165D85"/>
<path d="M240.132 97.9766C239.46 93.2662 243.766 90.8437 243.833 88.5558" stroke="#B86400" stroke-width="0.5372" stroke-miterlimit="10"/>
<path d="M258.905 90.911C258.905 90.911 257.828 93.7373 264.287 105.782" stroke="#B86400" stroke-width="0.5372" stroke-miterlimit="10"/>
<path d="M264.758 104.1L269.67 118.097C269.67 118.097 263.009 135.525 262 136.737C260.99 137.948 257.357 140.101 257.761 140.505C258.165 140.976 260.048 139.765 260.048 139.765C260.048 139.765 258.366 141.38 259.847 141.38C261.327 141.38 261.798 141.38 263.211 141.38C264.624 141.38 265.364 137.14 265.364 137.14C265.364 137.14 275.12 123.211 275.456 118.231C275.726 113.992 272.294 104.437 271.218 101.678C271.083 101.274 270.612 101.072 270.208 101.207L265.229 103.024C264.826 103.293 264.557 103.696 264.758 104.1Z" fill="#FB98AB"/>
<path d="M273.034 210.084H285.414" stroke="#BBC8FA" stroke-width="0.5372" stroke-miterlimit="10"/>
<path d="M231.588 210.084H245.044" stroke="#BBC8FA" stroke-width="0.5372" stroke-miterlimit="10"/>
<path opacity="0.46" d="M292.547 45.9601C284.944 45.9601 278.821 52.0836 278.821 59.6876C278.821 62.0428 279.426 64.1961 280.436 66.1476C279.157 67.4934 276.802 69.3103 273.102 69.8486C273.102 69.8486 278.35 73.3478 284.338 70.6561C286.626 72.4057 289.452 73.4151 292.547 73.4151C300.15 73.4151 306.272 67.2915 306.272 59.6876C306.272 52.0836 300.15 45.9601 292.547 45.9601Z" fill="url(#paint6_linear)"/>
<path d="M291.403 44.8162C283.8 44.8162 277.677 50.9397 277.677 58.5437C277.677 60.8989 278.282 63.0522 279.292 65.0037C278.013 66.3495 275.658 68.1664 271.958 68.7047C271.958 68.7047 277.206 72.2039 283.194 69.5122C285.482 71.2618 288.308 72.2711 291.403 72.2711C299.006 72.2711 305.129 66.1476 305.129 58.5437C305.129 50.9397 299.006 44.8162 291.403 44.8162Z" fill="white"/>
<path d="M291.672 50.9397C292.345 50.9397 293.018 51.007 293.623 51.2089C294.229 51.4107 294.834 51.6799 295.305 52.0164C295.776 52.3528 296.18 52.8239 296.516 53.3622C296.785 53.9005 296.987 54.5062 296.987 55.1791C296.987 55.7174 296.92 56.2557 296.718 56.6595C296.516 57.0632 296.314 57.467 296.045 57.8034C295.776 58.1399 295.44 58.4091 295.171 58.7455C294.834 59.0147 294.565 59.2839 294.229 59.553C293.96 59.8222 293.69 60.0914 293.489 60.3605C293.287 60.6297 293.152 60.8989 293.085 61.2353C293.085 61.3699 293.018 61.5045 292.883 61.6391C292.816 61.7736 292.681 61.8409 292.479 61.8409H290.797C290.663 61.8409 290.528 61.7736 290.394 61.6391C290.259 61.5045 290.192 61.3699 290.259 61.2353C290.259 60.697 290.394 60.2259 290.595 59.7549C290.797 59.3511 291.066 58.9474 291.335 58.6109C291.605 58.2745 291.941 58.0053 292.277 57.7361C292.614 57.467 292.95 57.1978 293.219 56.9286C293.489 56.6595 293.758 56.4576 293.892 56.1884C294.094 55.9193 294.161 55.6501 294.161 55.3809C294.161 54.8426 293.96 54.3716 293.489 54.0351C293.018 53.6987 292.412 53.4968 291.672 53.4968C290.461 53.4968 289.586 54.1024 288.981 55.3137C288.913 55.4482 288.846 55.5828 288.779 55.6501C288.711 55.7174 288.577 55.7847 288.375 55.7847H286.626C286.491 55.7847 286.357 55.7174 286.289 55.6501C286.222 55.5828 286.155 55.4482 286.155 55.3137C286.155 54.8426 286.289 54.3043 286.626 53.7659C286.895 53.2276 287.298 52.7566 287.769 52.3528C288.24 51.9491 288.846 51.6126 289.519 51.3434C290.192 51.0743 290.932 50.9397 291.672 50.9397ZM292.547 63.0522C292.681 63.0522 292.816 63.1195 292.95 63.2541C293.085 63.3886 293.152 63.5232 293.152 63.6578V65.542C293.152 65.6766 293.085 65.8111 292.95 65.9457C292.816 66.0803 292.681 66.1476 292.547 66.1476H290.73C290.595 66.1476 290.461 66.0803 290.326 65.9457C290.192 65.8111 290.124 65.6766 290.124 65.542V63.6578C290.124 63.5232 290.192 63.3886 290.326 63.2541C290.461 63.1195 290.595 63.0522 290.73 63.0522H292.547Z" fill="#2878A6"/>
<path d="M99.846 241.308V196.626H92.9831V241.644C92.9831 242.99 92.1757 244.269 90.8973 244.74C87.1967 246.153 84.6399 248.441 84.6399 249.383C84.6399 250.796 90.1572 251.872 96.8855 251.872C103.681 251.872 109.131 250.729 109.131 249.383C109.131 248.373 106.238 245.816 102.066 244.47C100.721 243.999 99.846 242.721 99.846 241.308Z" fill="#FB98AB"/>
<path d="M99.846 210.488V196.626H92.983V207.527L99.846 210.488Z" fill="#FB5773"/>
<path d="M110.881 185.994C104.623 186.129 99.2404 181.553 98.3657 175.295C96.1454 158.808 92.0411 129.065 90.1571 123.951C87.5331 116.818 86.0528 117.76 77.7769 117.76C69.501 117.76 67.7516 117.76 61.9652 117.76C56.1788 117.76 57.3226 128.46 59.2739 140.64C61.2251 152.752 65.8004 175.497 68.1553 184.716C70.443 193.934 76.9022 199.923 86.3892 199.923C95.8762 199.923 109.669 199.923 116.196 199.923C122.655 199.923 130.326 198.443 131.335 194.877C132.277 191.31 132.882 185.523 132.882 185.523L110.881 185.994Z" fill="#FB98AB"/>
<path d="M108.795 130.613C111.688 133.978 112.226 143.197 114.177 150.128C116.129 157.059 121.579 169.306 121.579 169.306H110.881C110.881 169.306 107.785 157.933 107.449 145.619C107.113 133.305 108.795 130.613 108.795 130.613Z" fill="#2878A6"/>
<path opacity="0.46" d="M108.795 130.613C111.688 133.978 112.226 143.197 114.177 150.128C116.129 157.059 121.579 169.306 121.579 169.306H110.881C110.881 169.306 107.785 157.933 107.449 145.619C107.113 133.305 108.795 130.613 108.795 130.613Z" fill="url(#paint7_linear)" fill-opacity="0.2"/>
<path d="M90.2244 116.886C90.2244 116.886 88.5423 114.463 89.1478 112.781C87.1966 109.887 86.7256 107.196 87.8021 105.513C88.0713 101.678 85.7836 99.2551 86.6583 97.7747C88.946 93.7372 93.3194 95.083 95.5398 94.0737C97.8274 93.0643 101.999 89.4306 107.651 92.2568C113.303 95.0831 110.746 99.5243 112.293 101.812C113.908 104.1 114.379 106.455 112.563 108.003C110.746 109.551 109.938 108.339 108.929 109.282C107.987 110.224 106.642 111.771 106.642 111.771L90.2244 116.886Z" fill="#165D85"/>
<path d="M108.391 106.59C108.391 106.59 108.525 109.551 108.122 111.031C107.718 112.512 108.929 114.53 108.458 114.732C108.055 114.934 106.776 114.396 106.776 114.396C106.776 114.396 105.363 119.712 103.95 119.644C102.134 119.51 100.519 118.501 100.519 118.501L97.4237 127.383C97.4237 127.383 92.2428 127.989 89.2151 124.961C86.1873 121.932 90.0898 117.087 91.1663 111.502C91.1663 111.502 91.9064 111.906 92.8484 110.224C93.7904 108.609 91.7718 106.253 93.6558 105.581C95.5397 104.908 95.2706 107.801 95.0688 108.34C94.8669 108.945 96.549 107.734 97.0873 105.446C97.0873 105.446 99.9132 105.11 101.595 103.225C101.595 103.225 102.605 105.782 105.296 105.311C105.296 105.244 106.507 107.465 108.391 106.59Z" fill="#FB98AB"/>
<path d="M100.519 118.433C100.519 118.433 100.721 118.568 101.124 118.77C100.99 118.635 100.788 118.501 100.519 118.433Z" fill="url(#paint8_linear)"/>
<path d="M92.983 109.753C92.9157 109.887 92.9157 109.955 92.8484 110.089C91.9064 111.704 91.1663 111.368 91.1663 111.368C90.0898 117.02 86.1873 121.798 89.2151 124.826C92.2428 127.854 97.4237 127.248 97.4237 127.248L100.519 118.366C94.665 116.213 92.983 109.753 92.983 109.753Z" fill="url(#paint9_linear)"/>
<path d="M85.9182 119.846C84.1016 120.587 73.4707 120.923 68.6936 127.316C63.9165 133.708 72.5288 173.276 77.9115 173.276C83.2942 173.276 114.177 173.276 114.177 173.276C108.593 159.818 108.795 130.613 108.795 130.613C106.911 128.123 101.663 125.162 101.663 125.162C101.663 125.162 101.393 124.018 101.393 123.615C101.326 123.211 99.3077 121.865 99.3077 121.865L98.7021 123.615L96.0108 126.576C96.0108 126.576 96.4818 122.807 93.6559 121.461C90.8299 120.183 88.8787 118.366 88.8787 118.366L89.417 116.818C89.417 116.818 88.2732 116.751 87.533 116.818C86.8602 116.953 85.9182 119.846 85.9182 119.846Z" fill="#2878A6"/>
<path d="M95.9434 127.316C95.9434 127.316 93.9922 153.358 101.73 172.199" stroke="#BBC8FA" stroke-width="0.5372" stroke-miterlimit="10"/>
<path opacity="0.46" d="M72.4614 131.219C72.4614 131.219 72.4614 127.921 72.4614 126.037C100.519 138.486 93.454 151.608 110.611 169.911C103.681 169.911 72.4614 169.911 72.4614 169.911V131.219Z" fill="url(#paint10_linear)" fill-opacity="0.1"/>
<path d="M160.872 167.825H119.897L127.971 139.361C128.24 138.352 129.182 137.611 130.326 137.611H167.668C168.543 137.611 169.148 138.419 168.946 139.294L160.872 167.825Z" fill="#165D85"/>
<path d="M145.397 157.26C147.887 157.26 149.905 155.242 149.905 152.752C149.905 150.262 147.887 148.243 145.397 148.243C142.907 148.243 140.889 150.262 140.889 152.752C140.889 155.242 142.907 157.26 145.397 157.26Z" fill="white"/>
<path d="M130.056 165.47H86.4565V167.893H130.056V165.47Z" fill="#165D85"/>
<path d="M94.4632 122.942C94.4632 122.942 93.5213 124.961 92.9157 127.316C92.3102 129.671 88.004 127.316 85.9182 121.394" stroke="#BBC8FA" stroke-width="0.5372" stroke-miterlimit="10"/>
<path d="M99.7787 123.951C99.5769 125.701 98.0966 129.2 98.5676 129.402C99.0386 129.604 100.788 128.123 101.73 125.162" stroke="#BBC8FA" stroke-width="0.5372" stroke-miterlimit="10"/>
<path d="M100.452 163.922C100.452 163.922 102.672 164.864 105.767 165.066C108.862 165.268 114.581 166.614 116.196 168.229H100.048L100.452 163.922Z" fill="#FB98AB"/>
<path d="M71.4523 126.037C76.2967 126.037 78.3152 132.834 78.3825 138.755C78.4498 143.466 79.1226 151.473 79.459 154.434C79.5263 155.175 79.9973 155.78 80.6701 155.982L101.663 163.384V168.296C101.663 168.296 81.4775 168.296 74.5473 168.296C67.6171 168.296 64.9257 167.623 64.522 155.982C64.1856 144.273 64.8585 126.037 71.4523 126.037Z" fill="#2878A6"/>
<path d="M128.913 238.145C128.913 238.145 127.365 248.441 128.038 249.786C128.711 251.2 142.437 253.891 143.446 252.613C144.455 251.334 135.776 249.046 135.439 245.547C135.17 242.452 136.045 238.145 136.045 238.145H128.913Z" fill="#FB98AB"/>
<path d="M143.513 252.613C144.388 251.536 137.996 249.652 136.045 246.893C132.142 247.902 129.384 247.431 127.903 247.027C127.836 248.373 127.836 249.383 128.038 249.786C128.778 251.132 142.437 253.891 143.513 252.613Z" fill="#165D85"/>
<path d="M118.484 193.194L131.335 194.876L128.105 239.423H137.458C137.458 239.423 146.81 204.768 149.165 193.194C151.453 181.62 135.708 175.496 123.328 172.401H95.9434C95.9434 172.401 94.7996 185.994 118.484 193.194Z" fill="#165D85"/>
<path opacity="0.46" d="M123.328 172.401H95.9435C95.9435 172.401 94.7997 185.994 118.551 193.194L126.827 194.271L139.813 178.457C134.901 175.698 128.778 173.747 123.328 172.401Z" fill="url(#paint11_linear)" fill-opacity="0.2"/>
<path d="M114.514 180.274C114.514 180.274 137.592 186.061 138.669 189.762C140.351 195.886 131.806 235.655 131.806 235.655" stroke="#2878A6" stroke-width="0.5372" stroke-miterlimit="10"/>
<path d="M128.374 235.655H138.669" stroke="white" stroke-width="0.5372" stroke-miterlimit="10"/>
<path d="M112.495 242.855C112.495 242.855 112.966 254.497 113.706 255.977C114.446 257.525 129.518 260.418 130.662 259.005C131.806 257.592 122.722 254.766 121.242 251.132C119.762 247.498 120.098 242.855 120.098 242.855H112.495Z" fill="#FB98AB"/>
<path d="M113.706 255.977C114.447 257.525 129.518 260.419 130.662 259.005C131.671 257.794 125.145 255.574 122.319 252.68C118.551 253.084 115.052 252.411 113.034 251.94C113.235 253.824 113.437 255.506 113.706 255.977Z" fill="#165D85"/>
<path d="M103.143 172.266C103.143 172.266 116.6 176.91 120.704 186.734C124.808 196.626 122.857 244.201 122.857 244.201H111.553L102.201 194.405C102.201 194.405 87.062 194.271 81.1411 191.714C75.2201 189.157 75.7584 176.842 77.575 170.921L103.143 172.266Z" fill="#165D85"/>
<path d="M110.679 239.356H122.992" stroke="white" stroke-width="0.5372" stroke-miterlimit="10"/>
<path d="M81.6121 170.988C81.6121 170.988 80.1991 181.553 86.322 184.715C92.4448 187.878 105.296 184.917 109.131 189.493C112.966 194.002 114.514 239.423 114.514 239.423" stroke="#2878A6" stroke-width="0.5372" stroke-miterlimit="10"/>
<path d="M162.083 170.988H157.643V260.957H162.083V170.988Z" fill="#C49C56"/>
<path d="M70.6447 170.988H66.204V260.957H70.6447V170.988Z" fill="#C49C56"/>
<path d="M162.083 170.988H157.643V184.716H162.083V170.988Z" fill="#9F824D"/>
<path d="M70.6447 170.988H66.204V184.716H70.6447V170.988Z" fill="#9F824D"/>
<path d="M166.861 167.825H61.3596V174.151H166.861V167.825Z" fill="#C49C56"/>
<path d="M169.527 64.656C170.807 64.656 171.887 64.976 172.767 65.616C173.663 66.256 174.287 67.112 174.639 68.184V64.824H176.823V78H174.639V74.64C174.287 75.712 173.663 76.568 172.767 77.208C171.887 77.848 170.807 78.168 169.527 78.168C168.359 78.168 167.319 77.896 166.407 77.352C165.495 76.808 164.775 76.032 164.247 75.024C163.735 74 163.479 72.8 163.479 71.424C163.479 70.048 163.735 68.848 164.247 67.824C164.775 66.8 165.495 66.016 166.407 65.472C167.319 64.928 168.359 64.656 169.527 64.656ZM170.151 66.6C168.807 66.6 167.727 67.032 166.911 67.896C166.111 68.744 165.711 69.92 165.711 71.424C165.711 72.928 166.111 74.112 166.911 74.976C167.727 75.824 168.807 76.248 170.151 76.248C171.015 76.248 171.783 76.048 172.455 75.648C173.143 75.248 173.679 74.688 174.063 73.968C174.447 73.232 174.639 72.384 174.639 71.424C174.639 70.464 174.447 69.616 174.063 68.88C173.679 68.144 173.143 67.584 172.455 67.2C171.783 66.8 171.015 66.6 170.151 66.6ZM190.571 64.656C191.739 64.656 192.779 64.928 193.691 65.472C194.603 66.016 195.315 66.8 195.827 67.824C196.355 68.848 196.619 70.048 196.619 71.424C196.619 72.8 196.355 74 195.827 75.024C195.315 76.032 194.603 76.808 193.691 77.352C192.779 77.896 191.739 78.168 190.571 78.168C189.291 78.168 188.203 77.848 187.307 77.208C186.427 76.552 185.819 75.696 185.483 74.64V78H183.299V60.24H185.483V68.184C185.819 67.128 186.427 66.28 187.307 65.64C188.203 64.984 189.291 64.656 190.571 64.656ZM189.947 66.6C189.099 66.6 188.331 66.8 187.643 67.2C186.955 67.584 186.419 68.144 186.035 68.88C185.651 69.616 185.459 70.464 185.459 71.424C185.459 72.384 185.651 73.232 186.035 73.968C186.419 74.688 186.955 75.248 187.643 75.648C188.331 76.048 189.099 76.248 189.947 76.248C191.307 76.248 192.387 75.824 193.187 74.976C194.003 74.112 194.411 72.928 194.411 71.424C194.411 69.92 194.003 68.744 193.187 67.896C192.387 67.032 191.307 66.6 189.947 66.6ZM208.303 64.656C209.983 64.656 211.375 65.104 212.479 66C213.583 66.896 214.263 68.096 214.519 69.6H212.215C212.055 68.656 211.615 67.92 210.895 67.392C210.191 66.848 209.311 66.576 208.255 66.576C207.487 66.576 206.783 66.752 206.143 67.104C205.519 67.456 205.015 68 204.631 68.736C204.247 69.456 204.055 70.352 204.055 71.424C204.055 72.496 204.247 73.4 204.631 74.136C205.015 74.856 205.519 75.392 206.143 75.744C206.783 76.096 207.487 76.272 208.255 76.272C209.311 76.272 210.191 76 210.895 75.456C211.615 74.912 212.055 74.168 212.215 73.224H214.519C214.263 74.744 213.583 75.952 212.479 76.848C211.375 77.728 209.983 78.168 208.303 78.168C207.039 78.168 205.919 77.896 204.943 77.352C203.967 76.808 203.199 76.032 202.639 75.024C202.095 74 201.823 72.8 201.823 71.424C201.823 70.048 202.095 68.848 202.639 67.824C203.199 66.8 203.967 66.016 204.943 65.472C205.919 64.928 207.039 64.656 208.303 64.656Z" fill="white"/>
<defs>
<linearGradient id="paint0_linear" x1="342.115" y1="218.956" x2="359.886" y2="167.626" gradientUnits="userSpaceOnUse">
<stop offset="0.1184" stop-color="#1F8D6E"/>
<stop offset="1" stop-color="#1CA790"/>
</linearGradient>
<linearGradient id="paint1_linear" x1="56.4685" y1="209.954" x2="27.5091" y2="100.448" gradientUnits="userSpaceOnUse">
<stop offset="0.1184" stop-color="#1F8D6E"/>
<stop offset="1" stop-color="#1CA790"/>
</linearGradient>
<linearGradient id="paint2_linear" x1="190.846" y1="31.9061" x2="190.846" y2="117.758" gradientUnits="userSpaceOnUse">
<stop stop-color="#C1C1C1"/>
<stop offset="1" stop-color="#5B5B5A"/>
</linearGradient>
<linearGradient id="paint3_linear" x1="254.324" y1="140.762" x2="254.324" y2="123.566" gradientUnits="userSpaceOnUse">
<stop stop-color="#C1C1C1"/>
<stop offset="1" stop-color="#5B5B5A"/>
</linearGradient>
<linearGradient id="paint4_linear" x1="253.793" y1="72.5087" x2="254.632" y2="79.9617" gradientUnits="userSpaceOnUse">
<stop offset="0.0443109" stop-color="#FB5773"/>
<stop offset="1" stop-color="#FB5773" stop-opacity="0"/>
</linearGradient>
<linearGradient id="paint5_linear" x1="264.08" y1="136.024" x2="264.08" y2="117.856" gradientUnits="userSpaceOnUse">
<stop stop-color="#D3DAF6"/>
<stop offset="1" stop-color="white"/>
</linearGradient>
<linearGradient id="paint6_linear" x1="289.689" y1="43.6711" x2="289.689" y2="77.4447" gradientUnits="userSpaceOnUse">
<stop stop-color="#C1C1C1"/>
<stop offset="1" stop-color="#5B5B5A"/>
</linearGradient>
<linearGradient id="paint7_linear" x1="107.421" y1="149.97" x2="121.623" y2="149.97" gradientUnits="userSpaceOnUse">
<stop stop-color="#C1C1C1"/>
<stop offset="1" stop-color="#5B5B5A"/>
</linearGradient>
<linearGradient id="paint8_linear" x1="102.223" y1="115.225" x2="99.457" y2="122.006" gradientUnits="userSpaceOnUse">
<stop offset="0.0443109" stop-color="#FB5773"/>
<stop offset="1" stop-color="#FB5773" stop-opacity="0"/>
</linearGradient>
<linearGradient id="paint9_linear" x1="96.8525" y1="113.036" x2="94.0882" y2="119.815" gradientUnits="userSpaceOnUse">
<stop offset="0.0443109" stop-color="#FB5773"/>
<stop offset="1" stop-color="#FB5773" stop-opacity="0"/>
</linearGradient>
<linearGradient id="paint10_linear" x1="72.4629" y1="147.949" x2="110.628" y2="147.949" gradientUnits="userSpaceOnUse">
<stop stop-color="#C1C1C1"/>
<stop offset="1" stop-color="#5B5B5A"/>
</linearGradient>
<linearGradient id="paint11_linear" x1="95.9194" y1="183.329" x2="139.812" y2="183.329" gradientUnits="userSpaceOnUse">
<stop stop-color="#C1C1C1"/>
<stop offset="1" stop-color="#5B5B5A"/>
</linearGradient>
</defs>
</svg>
