<svg width="88" height="107" viewBox="0 0 88 107" fill="none" xmlns="http://www.w3.org/2000/svg">
<g filter="url(#filter0_d)">
<rect x="2" y="1" width="84" height="103" rx="10" fill="#FAFAFC"/>
</g>
<path d="M20.972 31.251C20.7425 31.1233 20.49 31.042 20.229 31.0119C19.968 30.9818 19.7036 31.0035 19.451 31.0757C19.1984 31.1478 18.9624 31.2691 18.7567 31.4325C18.551 31.5959 18.3795 31.7983 18.252 32.028L14.539 38.71L12.414 36.585C12.2295 36.394 12.0089 36.2416 11.7648 36.1368C11.5208 36.032 11.2584 35.9768 10.9928 35.9745C10.7273 35.9722 10.4639 36.0228 10.2181 36.1234C9.97234 36.2239 9.74904 36.3724 9.56125 36.5602C9.37347 36.748 9.22496 36.9713 9.1244 37.2171C9.02384 37.4629 8.97323 37.7262 8.97554 37.9918C8.97785 38.2574 9.03302 38.5198 9.13784 38.7638C9.24266 39.0078 9.39502 39.2285 9.58604 39.413L13.586 43.413C13.964 43.792 14.474 44 15 44L15.277 43.98C15.5836 43.9371 15.876 43.8237 16.1313 43.6486C16.3865 43.4735 16.5977 43.2415 16.748 42.971L21.748 33.971C21.8757 33.7415 21.9569 33.489 21.987 33.2281C22.0171 32.9672 21.9955 32.7029 21.9234 32.4503C21.8513 32.1977 21.7302 31.9618 21.567 31.756C21.4038 31.5502 21.2016 31.3786 20.972 31.251Z" fill="#7EB7A3"/>
<path d="M20.972 55.251C20.7425 55.1233 20.49 55.042 20.229 55.0119C19.968 54.9818 19.7036 55.0035 19.451 55.0757C19.1984 55.1478 18.9624 55.2691 18.7567 55.4325C18.551 55.5959 18.3795 55.7983 18.252 56.028L14.539 62.71L12.414 60.585C12.2295 60.394 12.0089 60.2416 11.7648 60.1368C11.5208 60.032 11.2584 59.9768 10.9928 59.9745C10.7273 59.9722 10.4639 60.0228 10.2181 60.1234C9.97234 60.2239 9.74904 60.3724 9.56125 60.5602C9.37347 60.748 9.22496 60.9713 9.1244 61.2171C9.02384 61.4629 8.97323 61.7262 8.97554 61.9918C8.97785 62.2574 9.03302 62.5198 9.13784 62.7638C9.24266 63.0078 9.39502 63.2285 9.58604 63.413L13.586 67.413C13.964 67.792 14.474 68 15 68L15.277 67.98C15.5836 67.9371 15.876 67.8237 16.1313 67.6486C16.3865 67.4735 16.5977 67.2415 16.748 66.971L21.748 57.971C21.8757 57.7415 21.9569 57.489 21.987 57.2281C22.0171 56.9672 21.9955 56.7029 21.9234 56.4503C21.8513 56.1977 21.7302 55.9618 21.567 55.756C21.4038 55.5502 21.2016 55.3786 20.972 55.251Z" fill="#7EB7A3"/>
<path d="M20.972 78.251C20.7425 78.1233 20.49 78.042 20.229 78.0119C19.968 77.9818 19.7036 78.0035 19.451 78.0757C19.1984 78.1478 18.9624 78.2691 18.7567 78.4325C18.551 78.5959 18.3795 78.7983 18.252 79.028L14.539 85.71L12.414 83.585C12.2295 83.394 12.0089 83.2416 11.7648 83.1368C11.5208 83.032 11.2584 82.9768 10.9928 82.9745C10.7273 82.9722 10.4639 83.0228 10.2181 83.1234C9.97234 83.2239 9.74904 83.3724 9.56125 83.5602C9.37347 83.748 9.22496 83.9713 9.1244 84.2171C9.02384 84.4629 8.97323 84.7262 8.97554 84.9918C8.97785 85.2574 9.03302 85.5198 9.13784 85.7638C9.24266 86.0078 9.39502 86.2285 9.58604 86.413L13.586 90.413C13.964 90.792 14.474 91 15 91L15.277 90.98C15.5836 90.9371 15.876 90.8237 16.1313 90.6486C16.3865 90.4735 16.5977 90.2415 16.748 89.971L21.748 80.971C21.8757 80.7415 21.9569 80.489 21.987 80.2281C22.0171 79.9672 21.9955 79.7029 21.9234 79.4503C21.8513 79.1977 21.7302 78.9618 21.567 78.756C21.4038 78.5502 21.2016 78.3786 20.972 78.251Z" fill="#7EB7A3"/>
<rect x="28" y="32" width="50" height="9" rx="4.5" fill="#D3D4D8"/>
<rect x="28" y="56" width="29" height="9" rx="4.5" fill="#D3D4D8"/>
<rect x="62" y="56" width="16" height="9" rx="4.5" fill="#D3D4D8"/>
<rect x="28" y="79" width="15" height="9" rx="4.5" fill="#D3D4D8"/>
<rect x="46" y="79" width="15" height="9" rx="4.5" fill="#D3D4D8"/>
<rect x="63" y="79" width="15" height="9" rx="4.5" fill="#D3D4D8"/>
<defs>
<filter id="filter0_d" x="0" y="0" width="88" height="107" filterUnits="userSpaceOnUse" color-interpolation-filters="sRGB">
<feFlood flood-opacity="0" result="BackgroundImageFix"/>
<feColorMatrix in="SourceAlpha" type="matrix" values="0 0 0 0 0 0 0 0 0 0 0 0 0 0 0 0 0 0 127 0"/>
<feOffset dy="1"/>
<feGaussianBlur stdDeviation="1"/>
<feColorMatrix type="matrix" values="0 0 0 0 0 0 0 0 0 0 0 0 0 0 0 0 0 0 0.1 0"/>
<feBlend mode="multiply" in2="BackgroundImageFix" result="effect1_dropShadow"/>
<feBlend mode="normal" in="SourceGraphic" in2="effect1_dropShadow" result="shape"/>
</filter>
</defs>
</svg>
