<svg width="102" height="87" viewBox="0 0 102 87" fill="none" xmlns="http://www.w3.org/2000/svg">
<ellipse cx="50.5238" cy="43.7455" rx="36.0263" ry="34.2492" fill="#F0F1F3"/>
<rect x="59.1016" y="45.3765" width="42.3166" height="40.2292" rx="10" fill="#BADFD3"/>
<path fill-rule="evenodd" clip-rule="evenodd" d="M101.358 76.7089C100.81 81.7064 96.5788 85.5961 91.4375 85.6057H71.1104L79.6881 81.2566C80.109 81.1423 80.7683 80.9959 81.5121 80.8306C83.126 80.4721 85.1381 80.0251 85.9784 79.6257C87.1221 79.0821 89.2189 77.4512 90.5532 76.3639C91.135 76.2948 92.122 76.2626 93.2728 76.225C95.138 76.1641 97.4333 76.0892 99.1308 75.8203C99.8269 75.71 100.587 76.0635 101.358 76.7089Z" fill="#E18420"/>
<path d="M80.0028 80.9643L77.7154 74.4406L86.8649 64.6552C87.6274 67.3733 89.3811 73.5708 90.296 76.6152C88.0086 79.2246 82.4808 80.6019 80.0028 80.9643Z" fill="#E598AA" stroke="#E598AA"/>
<path d="M89.7242 71.6926L86.8649 62.9944L75.9999 72.7799C77.1436 75.1356 79.5453 79.8472 80.0028 79.8472L89.7242 71.6926Z" fill="#DC5A73"/>
<path d="M89.7242 71.6926L86.8649 62.9944L75.9999 72.7799C77.1436 75.1356 79.5453 79.8472 80.0028 79.8472L89.7242 71.6926Z" fill="url(#paint0_linear)"/>
<path d="M69.7095 69.0043C70.167 67.6996 69.5189 64.474 69.1377 63.0243C69.1377 63.0243 74.6655 55.957 78.2872 56.5007C81.9089 57.0443 88.5804 59.6538 86.2931 65.7425C83.4338 73.3534 74.8562 75.528 73.7125 76.0716C72.7975 76.5065 71.8063 72.991 71.4251 71.1789H69.1377C69.1377 70.9977 69.2521 70.3091 69.7095 69.0043Z" fill="#E598AA" stroke="#E598AA"/>
<path d="M65.5988 60.0079C64.6838 59.1381 67.8034 59.7327 68.5659 58.6454C69.1377 58.8266 70.0526 58.7541 69.1377 57.0145C67.994 54.84 72.6581 56.5586 73.2299 52.7531C73.8018 48.9477 76.7756 51.141 80.4372 51.141C83.2465 51.141 80.5746 56.4709 84.0057 53.7527C87.4367 51.0345 86.2931 58.6454 89.1523 57.0145C92.0115 55.3836 90.296 64.0818 92.0115 64.0818C93.3839 64.0818 90.6772 66.6188 89.1523 67.8873C90.6772 68.4309 92.8121 70.1705 89.1523 72.78C85.4925 75.3895 83.4338 72.78 82.862 71.1491C85.5306 68.7933 89.9529 63.3207 86.2931 60.2763C85.7783 59.8482 85.2275 59.4888 84.6526 59.189C83.6745 60.0951 82.1551 66.4566 80.8612 66.4566C78.4364 66.4566 81.7183 58.707 79.4309 57.8607C76.3479 57.6805 73.5407 58.3374 72.5688 58.6454C71.1963 59.0803 71.301 60.4172 70.5385 61.6857L68.5659 64.6254C68.5659 64.4442 66.5137 60.8777 65.5988 60.0079Z" fill="#162270"/>
<path d="M84.6526 59.189C85.2275 59.4888 85.7783 59.8482 86.2931 60.2763C89.9529 63.3207 85.5306 68.7933 82.862 71.1491C83.4338 72.78 85.4925 75.3895 89.1523 72.78C92.8121 70.1705 90.6772 68.4309 89.1523 67.8873C90.6772 66.6188 93.3839 64.0818 92.0115 64.0818C90.296 64.0818 92.0115 55.3836 89.1523 57.0145C86.2931 58.6454 87.4367 51.0345 84.0057 53.7527C80.5746 56.4709 83.2465 51.141 80.4372 51.141C76.7756 51.141 73.8018 48.9477 73.2299 52.7531C72.6581 56.5586 67.994 54.84 69.1377 57.0145C70.0526 58.7541 69.1377 58.8266 68.5659 58.6454C67.8034 59.7327 64.6838 59.1381 65.5988 60.0079C66.5137 60.8777 68.5659 64.4442 68.5659 64.6254L70.5385 61.6857C71.301 60.4172 71.1963 59.0803 72.5688 58.6454C73.5407 58.3374 76.3479 57.6805 79.4309 57.8607M84.6526 59.189C83.6745 60.0951 82.1551 66.4566 80.8612 66.4566C78.4364 66.4566 81.7183 58.707 79.4309 57.8607M84.6526 59.189C83.0126 58.3337 81.1775 57.9629 79.4309 57.8607" stroke="#162270"/>
<rect width="42.3166" height="40.2292" rx="10" transform="matrix(-1 0 0 1 43.09 0.798096)" fill="#BADFD3"/>
<path d="M22.1888 36.386L24.4762 29.8624L15.3267 20.0769C14.5642 22.7951 12.8106 28.9926 11.8956 32.0369C14.183 34.6464 19.7109 36.0236 22.1888 36.386Z" fill="#E598AA" stroke="#E598AA"/>
<path d="M12.4675 27.1142L15.3268 18.416L26.1918 28.2015C25.0481 30.5573 22.6464 35.2688 22.1889 35.2688L12.4675 27.1142Z" fill="#DC5A73"/>
<path d="M12.4675 27.1142L15.3268 18.416L26.1918 28.2015C25.0481 30.5573 22.6464 35.2688 22.1889 35.2688L12.4675 27.1142Z" fill="url(#paint1_linear)"/>
<path d="M32.4822 24.4258C32.0247 23.1211 32.6728 19.8955 33.054 18.4458C33.054 18.4458 27.5262 11.3785 23.9045 11.9222C20.2828 12.4658 13.6113 15.0753 15.8987 21.164C18.7579 28.7749 27.3356 30.9495 28.4793 31.4931C29.3942 31.928 30.3854 28.4125 30.7666 26.6004H33.054C33.054 26.4192 32.9397 25.7306 32.4822 24.4258Z" fill="#E598AA" stroke="#E598AA"/>
<path fill-rule="evenodd" clip-rule="evenodd" d="M0.833416 32.1304C1.38249 37.1342 5.62324 41.0273 10.7733 41.0273H31.0809L22.5034 36.6783C22.0824 36.5639 21.4232 36.4175 20.6793 36.2523C19.0654 35.8937 17.0533 35.4468 16.2131 35.0474C15.0694 34.5037 12.9726 32.8728 11.6383 31.7855C11.0564 31.7164 10.0694 31.6842 8.91868 31.6466C7.0535 31.5858 4.75815 31.5109 3.06061 31.2419C2.36455 31.1316 1.60474 31.4851 0.833416 32.1304Z" fill="#E18420"/>
<path d="M33.4242 18.4509C28.8494 20.4443 19.128 23.6699 16.8406 20.6255C15.5533 18.9122 14.9301 18.2664 14.6652 18.1261C14.626 18.2367 14.5887 18.3451 14.5533 18.4509C14.4699 18.2132 14.4594 18.0171 14.6652 18.1261C16.1032 14.0705 20.0743 6.972 25.4183 8.66545C30.908 10.4051 33.0429 15.914 33.4242 18.4509Z" fill="#162270" stroke="#162270"/>
<path d="M9.03478 9.95906C10.8658 6.82346 14.5848 9.87199 16.2155 11.7882L18.3852 14.5922C16.8004 15.3141 12.9895 16.9323 10.4249 17.6298C7.21907 18.5016 6.74603 13.8786 9.03478 9.95906Z" fill="#162270" stroke="#162270"/>
<path d="M21.329 19.6507C21.7865 18.7809 22.6633 19.6507 23.0446 20.1944C22.4727 21.4629 20.9859 23.8911 19.6135 23.4562C17.898 22.9126 20.7572 20.738 21.329 19.6507Z" fill="#E598AA" stroke="#E598AA"/>
<rect x="57.9579" y="0.798096" width="42.3166" height="40.2292" rx="10" fill="#BADFD3"/>
<path d="M78.859 36.386L76.5716 29.8624L85.7211 20.0769C86.4836 22.7951 88.2373 28.9926 89.1522 32.0369C86.8648 34.6464 81.337 36.0236 78.859 36.386Z" fill="#E598AA" stroke="#E598AA"/>
<path d="M88.5804 27.1142L85.7212 18.416L74.8561 28.2015C75.9998 30.5573 78.4016 35.2688 78.8591 35.2688L88.5804 27.1142Z" fill="#DC5A73"/>
<path d="M88.5804 27.1142L85.7212 18.416L74.8561 28.2015C75.9998 30.5573 78.4016 35.2688 78.8591 35.2688L88.5804 27.1142Z" fill="url(#paint2_linear)"/>
<path d="M68.5658 24.4258C69.0233 23.1211 68.3752 19.8955 67.994 18.4458C67.994 18.4458 73.5218 11.3785 77.1435 11.9222C80.7652 12.4658 87.4367 15.0753 85.1493 21.164C82.2901 28.7749 73.7124 30.9495 72.5687 31.4931C71.6538 31.928 70.6626 28.4125 70.2813 26.6004H67.994C67.994 26.4192 68.1083 25.7306 68.5658 24.4258Z" fill="#E598AA" stroke="#E598AA"/>
<path fill-rule="evenodd" clip-rule="evenodd" d="M100.214 32.1304C99.6652 37.1342 95.4244 41.0273 90.2744 41.0273H69.9667L78.5443 36.6783C78.9653 36.5639 79.6245 36.4175 80.3683 36.2523C81.9822 35.8937 83.9943 35.4468 84.8346 35.0474C85.9783 34.5037 88.0751 32.8728 89.4094 31.7855C89.9912 31.7164 90.9782 31.6842 92.129 31.6466C93.9942 31.5858 96.2895 31.5109 97.9871 31.2419C98.6831 31.1316 99.4429 31.4851 100.214 32.1304Z" fill="#E18420"/>
<path d="M67.6235 18.451C72.1982 20.4443 81.9196 23.6699 84.207 20.6255C85.5166 18.8825 86.1389 18.2444 86.3958 18.1193C86.427 18.2363 86.4596 18.3471 86.4944 18.451C86.5758 18.2186 86.5877 18.0259 86.3958 18.1193C85.8678 16.1374 85.7554 12.3894 82.5472 10.5837C79.1161 12.2146 69.4578 8.02669 66.5355 8.95274C61.0458 10.6924 68.0047 15.914 67.6235 18.451Z" fill="#162270" stroke="#162270"/>
<path d="M79.7186 19.6509C79.2611 18.781 78.3843 19.6509 78.003 20.1945C78.5749 21.463 80.0617 23.8912 81.4341 23.4563C83.1496 22.9127 80.2904 20.7381 79.7186 19.6509Z" fill="#E598AA" stroke="#E598AA"/>
<rect width="42.3166" height="40.2292" rx="10" transform="matrix(-1 0 0 1 43.09 46.4637)" fill="#BADFD3"/>
<path d="M35.656 85.6056C35.2568 83.8128 30.9198 79.4471 29.0904 78.2519C26.9282 77.8037 21.6061 76.9073 17.6145 76.9073C13.6229 76.9073 9.29874 82.767 7.63557 85.6056C8.61294 86.3024 10.7233 86.6928 12.7821 86.6928C21.3598 86.6928 35.9699 87.0153 35.656 85.6056Z" fill="#E18420"/>
<path d="M24.8903 74.6017C25.6859 72.9145 27.965 72.5583 28.7938 72.5583L28.8683 71.9655L19.9177 70.3838L17.9287 78.8195C17.9287 78.8195 23.8958 80.9285 23.8958 79.874C23.8958 78.8195 24.0947 76.2888 24.8903 74.6017Z" fill="url(#paint3_linear)"/>
<path d="M30.8346 79.7569C31.2361 80.8971 28.6921 78.3031 27.019 78.1447L25.7471 77.899L24.219 77.4511C24.219 77.4511 24.3953 74.0984 26.1889 73.1412C27.1477 72.6295 28.7938 72.5584 28.7938 72.5584L29.3246 69.3477L29.7025 62.2146C29.0332 60.7894 28.4211 57.4709 24.8071 55.5707C22.7993 56.9959 24.8071 62.2216 23.8032 66.0222C22.7993 69.8228 20.2895 70.7729 19.7876 74.0984C19.2857 77.4239 20.7915 82.1746 18.7837 84.55C16.7759 86.9253 7.23896 84.55 5.73313 84.55C4.22729 84.55 3.2234 82.1746 5.73313 77.899C8.24286 73.6234 10.2506 70.7729 10.2506 64.1219C10.6522 53.1003 20.1222 50.6616 24.8071 50.8199C27.3168 50.9783 32.3362 51.8651 32.3362 54.1454C32.3362 56.9959 30.8305 62.469 32.3363 64.8444C33.8421 67.2197 31.8343 70.2908 32.3362 73.1412C32.8382 75.9916 30.3326 78.3317 30.8346 79.7569Z" fill="#162270"/>
<path d="M29.5736 61.3018C29.1577 58.8458 26.9743 56.6968 25.4147 55.1619C21.7757 57.2085 22.8154 62.7861 22.8154 65.395C22.8154 67.4417 21.3078 70.4477 20.788 71.471C22.3475 72.4943 26.0905 73.1019 27.6501 73.1019C30.0934 73.1019 30.5093 70.3837 30.0934 67.4417C29.8387 65.6396 30.7866 64.0306 31.653 63.3484C31.0812 63.3164 29.7469 62.3251 29.5736 61.3018Z" fill="#E48EA2"/>
<defs>
<linearGradient id="paint0_linear" x1="89.7242" y1="78.2162" x2="83.3331" y2="68.1322" gradientUnits="userSpaceOnUse">
<stop stop-color="#E598AA"/>
<stop offset="1" stop-color="white" stop-opacity="0"/>
</linearGradient>
<linearGradient id="paint1_linear" x1="12.4675" y1="33.6379" x2="18.8586" y2="23.5538" gradientUnits="userSpaceOnUse">
<stop stop-color="#E598AA"/>
<stop offset="1" stop-color="white" stop-opacity="0"/>
</linearGradient>
<linearGradient id="paint2_linear" x1="88.5804" y1="33.6379" x2="82.1894" y2="23.5538" gradientUnits="userSpaceOnUse">
<stop stop-color="#E598AA"/>
<stop offset="1" stop-color="white" stop-opacity="0"/>
</linearGradient>
<linearGradient id="paint3_linear" x1="23.3986" y1="70.3838" x2="23.3986" y2="79.874" gradientUnits="userSpaceOnUse">
<stop stop-color="#DF6F86"/>
<stop offset="1" stop-color="#E48EA2"/>
</linearGradient>
</defs>
</svg>
